<?xml version="1.0" encoding="UTF-8" standalone="no"?>
<!-- Created with Inkscape (http://www.inkscape.org/) -->

<svg
   xmlns:dc="http://purl.org/dc/elements/1.1/"
   xmlns:cc="http://creativecommons.org/ns#"
   xmlns:rdf="http://www.w3.org/1999/02/22-rdf-syntax-ns#"
   xmlns:svg="http://www.w3.org/2000/svg"
   xmlns="http://www.w3.org/2000/svg"
   xmlns:sodipodi="http://sodipodi.sourceforge.net/DTD/sodipodi-0.dtd"
   xmlns:inkscape="http://www.inkscape.org/namespaces/inkscape"
   width="5.5366378mm"
   height="6.5451188mm"
   viewBox="0 0 5.5366378 6.5451189"
   version="1.1"
   id="svg2868"
   inkscape:version="0.92.4 (5da689c313, 2019-01-14)"
   sodipodi:docname="bolsa.svg">
  <defs
     id="defs2862" />
  <sodipodi:namedview
     id="base"
     pagecolor="#ffffff"
     bordercolor="#666666"
     borderopacity="1.0"
     inkscape:pageopacity="0.0"
     inkscape:pageshadow="2"
     inkscape:zoom="2.8"
     inkscape:cx="-55.166927"
     inkscape:cy="92.217681"
     inkscape:document-units="mm"
     inkscape:current-layer="layer1"
     showgrid="false"
     fit-margin-top="0"
     fit-margin-left="0"
     fit-margin-right="0"
     fit-margin-bottom="0"
     inkscape:window-width="1290"
     inkscape:window-height="704"
     inkscape:window-x="70"
     inkscape:window-y="27"
     inkscape:window-maximized="1" />
  <metadata
     id="metadata2865">
    <rdf:RDF>
      <cc:Work
         rdf:about="">
        <dc:format>image/svg+xml</dc:format>
        <dc:type
           rdf:resource="http://purl.org/dc/dcmitype/StillImage" />
        <dc:title></dc:title>
      </cc:Work>
    </rdf:RDF>
  </metadata>
  <g
     inkscape:label="Layer 1"
     inkscape:groupmode="layer"
     id="layer1"
     transform="translate(-45.30622,-121.9254)">
    <path
       style="color:#000000;font-style:normal;font-variant:normal;font-weight:normal;font-stretch:normal;font-size:medium;line-height:normal;font-family:sans-serif;font-variant-ligatures:normal;font-variant-position:normal;font-variant-caps:normal;font-variant-numeric:normal;font-variant-alternates:normal;font-feature-settings:normal;text-indent:0;text-align:start;text-decoration:none;text-decoration-line:none;text-decoration-style:solid;text-decoration-color:#000000;letter-spacing:normal;word-spacing:normal;text-transform:none;writing-mode:lr-tb;direction:ltr;text-orientation:mixed;dominant-baseline:auto;baseline-shift:baseline;text-anchor:start;white-space:normal;shape-padding:0;clip-rule:nonzero;display:inline;overflow:visible;visibility:visible;opacity:0.98999999;isolation:auto;mix-blend-mode:normal;color-interpolation:sRGB;color-interpolation-filters:linearRGB;solid-color:#000000;solid-opacity:1;vector-effect:none;fill:#000000;fill-opacity:1;fill-rule:nonzero;stroke:none;stroke-width:0.42333335;stroke-linecap:butt;stroke-linejoin:miter;stroke-miterlimit:4;stroke-dasharray:none;stroke-dashoffset:0;stroke-opacity:1;color-rendering:auto;image-rendering:auto;shape-rendering:auto;text-rendering:auto;enable-background:accumulate"
       d="m 47.14026,122.65411 c -0.91978,0 -1.66601,0.74624 -1.66601,1.66602 v 0.13281 0.76367 0.39844 h 0.42382 v -0.39844 -0.76367 -0.13281 c 0,-0.69258 0.54962,-1.24219 1.24219,-1.24219 h 1.04688 c 0.69257,0 1.24414,0.54961 1.24414,1.24219 v 0.13281 0.76367 2.83008 h -3.53321 v -0.36719 h -0.42382 v 0.79102 h 4.38086 v -3.25391 -0.76367 -0.13281 c 0,-0.91978 -0.74819,-1.66602 -1.66797,-1.66602 z"
       id="rect3724"
       inkscape:connector-curvature="0" />
    <path
       style="color:#000000;font-style:normal;font-variant:normal;font-weight:normal;font-stretch:normal;font-size:medium;line-height:normal;font-family:sans-serif;font-variant-ligatures:normal;font-variant-position:normal;font-variant-caps:normal;font-variant-numeric:normal;font-variant-alternates:normal;font-feature-settings:normal;text-indent:0;text-align:start;text-decoration:none;text-decoration-line:none;text-decoration-style:solid;text-decoration-color:#000000;letter-spacing:normal;word-spacing:normal;text-transform:none;writing-mode:lr-tb;direction:ltr;text-orientation:mixed;dominant-baseline:auto;baseline-shift:baseline;text-anchor:start;white-space:normal;shape-padding:0;clip-rule:nonzero;display:inline;overflow:visible;visibility:visible;opacity:0.98999999;isolation:auto;mix-blend-mode:normal;color-interpolation:sRGB;color-interpolation-filters:linearRGB;solid-color:#000000;solid-opacity:1;vector-effect:none;fill:#000000;fill-opacity:1;fill-rule:nonzero;stroke:none;stroke-width:0.26458332;stroke-linecap:butt;stroke-linejoin:miter;stroke-miterlimit:4;stroke-dasharray:none;stroke-dashoffset:0;stroke-opacity:1;color-rendering:auto;image-rendering:auto;shape-rendering:auto;text-rendering:auto;enable-background:accumulate"
       d="m 47.14026,122.73419 v 0.26367 c 0.71984,0 1.3418,0.72967 1.3418,1.4629 v 0.13281 0.76367 1.73242 h 0.26367 v -1.73242 -0.76367 -0.13281 c 0,-0.87916 -0.71293,-1.72657 -1.60547,-1.72657 z"
       id="path3729"
       inkscape:connector-curvature="0" />
    <path
       style="color:#000000;font-style:normal;font-variant:normal;font-weight:normal;font-stretch:normal;font-size:medium;line-height:normal;font-family:sans-serif;font-variant-ligatures:normal;font-variant-position:normal;font-variant-caps:normal;font-variant-numeric:normal;font-variant-alternates:normal;font-feature-settings:normal;text-indent:0;text-align:start;text-decoration:none;text-decoration-line:none;text-decoration-style:solid;text-decoration-color:#000000;letter-spacing:normal;word-spacing:normal;text-transform:none;writing-mode:lr-tb;direction:ltr;text-orientation:mixed;dominant-baseline:auto;baseline-shift:baseline;text-anchor:start;white-space:normal;shape-padding:0;clip-rule:nonzero;display:inline;overflow:visible;visibility:visible;opacity:0.98999999;isolation:auto;mix-blend-mode:normal;color-interpolation:sRGB;color-interpolation-filters:linearRGB;solid-color:#000000;solid-opacity:1;vector-effect:none;fill:#000000;fill-opacity:1;fill-rule:nonzero;stroke:none;stroke-width:0.26458332;stroke-linecap:butt;stroke-linejoin:miter;stroke-miterlimit:4;stroke-dasharray:none;stroke-dashoffset:0;stroke-opacity:1;color-rendering:auto;image-rendering:auto;shape-rendering:auto;text-rendering:auto;enable-background:accumulate"
       d="m 45.89222,125.4549 v 0.002 h -0.0547 c -0.29087,0 -0.5293,0.23843 -0.5293,0.5293 v 0.16992 h -0.002 v 1.67187 h 0.71875 2.15039 v -1.53906 -0.83398 z m 0.26367,0.26367 h 1.75586 v 0.57031 1.27344 h -1.88672 -0.45508 v -1.14063 h 0.002 v -0.43554 c 0,-0.14888 0.11676,-0.26563 0.26563,-0.26563 h 0.31836 z"
       id="rect3731"
       inkscape:connector-curvature="0" />
    <path
       style="color:#000000;font-style:normal;font-variant:normal;font-weight:normal;font-stretch:normal;font-size:medium;line-height:normal;font-family:sans-serif;font-variant-ligatures:normal;font-variant-position:normal;font-variant-caps:normal;font-variant-numeric:normal;font-variant-alternates:normal;font-feature-settings:normal;text-indent:0;text-align:start;text-decoration:none;text-decoration-line:none;text-decoration-style:solid;text-decoration-color:#000000;letter-spacing:normal;word-spacing:normal;text-transform:none;writing-mode:lr-tb;direction:ltr;text-orientation:mixed;dominant-baseline:auto;baseline-shift:baseline;text-anchor:start;white-space:normal;shape-padding:0;clip-rule:nonzero;display:inline;overflow:visible;visibility:visible;opacity:1;isolation:auto;mix-blend-mode:normal;color-interpolation:sRGB;color-interpolation-filters:linearRGB;solid-color:#000000;solid-opacity:1;vector-effect:none;fill:#000000;fill-opacity:1;fill-rule:nonzero;stroke:none;stroke-width:0.26458332px;stroke-linecap:butt;stroke-linejoin:miter;stroke-miterlimit:4;stroke-dasharray:none;stroke-dashoffset:0;stroke-opacity:1;color-rendering:auto;image-rendering:auto;shape-rendering:auto;text-rendering:auto;enable-background:accumulate"
       d="m 45.42542,126.07599 v 0.26367 h 1.80664 v -0.26367 z"
       id="path3743"
       inkscape:connector-curvature="0" />
    <path
       style="color:#000000;font-style:normal;font-variant:normal;font-weight:normal;font-stretch:normal;font-size:medium;line-height:normal;font-family:sans-serif;font-variant-ligatures:normal;font-variant-position:normal;font-variant-caps:normal;font-variant-numeric:normal;font-variant-alternates:normal;font-feature-settings:normal;text-indent:0;text-align:start;text-decoration:none;text-decoration-line:none;text-decoration-style:solid;text-decoration-color:#000000;letter-spacing:normal;word-spacing:normal;text-transform:none;writing-mode:lr-tb;direction:ltr;text-orientation:mixed;dominant-baseline:auto;baseline-shift:baseline;text-anchor:start;white-space:normal;shape-padding:0;clip-rule:nonzero;display:inline;overflow:visible;visibility:visible;opacity:1;isolation:auto;mix-blend-mode:normal;color-interpolation:sRGB;color-interpolation-filters:linearRGB;solid-color:#000000;solid-opacity:1;vector-effect:none;fill:#000000;fill-opacity:1;fill-rule:nonzero;stroke:none;stroke-width:0.26458332px;stroke-linecap:butt;stroke-linejoin:miter;stroke-miterlimit:4;stroke-dasharray:none;stroke-dashoffset:0;stroke-opacity:1;color-rendering:auto;image-rendering:auto;shape-rendering:auto;text-rendering:auto;enable-background:accumulate"
       d="m 50.18518,122.11896 c -0.47202,-0.0183 -0.78544,0.24544 -0.96093,0.5 -0.1755,0.25456 -0.23438,0.51172 -0.23438,0.51172 l 0.25781,0.0586 c 0,0 0.0497,-0.21147 0.19336,-0.41992 0.14371,-0.20845 0.36135,-0.40115 0.73438,-0.38672 0.0742,0.003 0.12628,0.0279 0.17969,0.082 0.0534,0.0542 0.10436,0.14197 0.14257,0.26758 0.0764,0.25121 0.10041,0.64091 0.0606,1.12891 -0.0797,0.97598 -0.40742,2.35001 -0.98242,3.89843 l 0.24805,0.0918 c 0.58127,-1.56533 0.91519,-2.95439 0.99804,-3.96875 0.0414,-0.50718 0.023,-0.91987 -0.0703,-1.22656 -0.0467,-0.15335 -0.11248,-0.28105 -0.20703,-0.37696 -0.0945,-0.0959 -0.22232,-0.15485 -0.35938,-0.16015 z"
       id="path3745"
       inkscape:connector-curvature="0" />
    <path
       style="color:#000000;font-style:normal;font-variant:normal;font-weight:normal;font-stretch:normal;font-size:medium;line-height:normal;font-family:sans-serif;font-variant-ligatures:normal;font-variant-position:normal;font-variant-caps:normal;font-variant-numeric:normal;font-variant-alternates:normal;font-feature-settings:normal;text-indent:0;text-align:start;text-decoration:none;text-decoration-line:none;text-decoration-style:solid;text-decoration-color:#000000;letter-spacing:normal;word-spacing:normal;text-transform:none;writing-mode:lr-tb;direction:ltr;text-orientation:mixed;dominant-baseline:auto;baseline-shift:baseline;text-anchor:start;white-space:normal;shape-padding:0;clip-rule:nonzero;display:inline;overflow:visible;visibility:visible;opacity:1;isolation:auto;mix-blend-mode:normal;color-interpolation:sRGB;color-interpolation-filters:linearRGB;solid-color:#000000;solid-opacity:1;vector-effect:none;fill:#000000;fill-opacity:1;fill-rule:nonzero;stroke:none;stroke-width:0.26458332px;stroke-linecap:butt;stroke-linejoin:miter;stroke-miterlimit:4;stroke-dasharray:none;stroke-dashoffset:0;stroke-opacity:1;color-rendering:auto;image-rendering:auto;shape-rendering:auto;text-rendering:auto;enable-background:accumulate"
       d="m 49.59143,121.99786 c -0.46471,-0.018 -0.77689,0.20063 -0.95507,0.41993 -0.17819,0.21929 -0.23829,0.44726 -0.23829,0.44726 l 0.25586,0.0684 c 0,0 0.0465,-0.1741 0.1875,-0.34765 0.14102,-0.17356 0.35991,-0.33894 0.74024,-0.32422 0.1059,0.004 0.1785,0.0608 0.25,0.22656 0.0715,0.16573 0.11741,0.42978 0.12305,0.76367 0.0113,0.66777 -0.12741,1.61635 -0.41211,2.69336 l 0.25585,0.0684 c 0.28905,-1.09341 0.43187,-2.05755 0.41993,-2.76563 -0.006,-0.35403 -0.048,-0.64401 -0.14258,-0.86328 -0.0946,-0.21927 -0.26622,-0.37827 -0.48438,-0.38672 z"
       id="path3747"
       inkscape:connector-curvature="0" />
    <path
       style="color:#000000;font-style:normal;font-variant:normal;font-weight:normal;font-stretch:normal;font-size:medium;line-height:normal;font-family:sans-serif;font-variant-ligatures:normal;font-variant-position:normal;font-variant-caps:normal;font-variant-numeric:normal;font-variant-alternates:normal;font-feature-settings:normal;text-indent:0;text-align:start;text-decoration:none;text-decoration-line:none;text-decoration-style:solid;text-decoration-color:#000000;letter-spacing:normal;word-spacing:normal;text-transform:none;writing-mode:lr-tb;direction:ltr;text-orientation:mixed;dominant-baseline:auto;baseline-shift:baseline;text-anchor:start;white-space:normal;shape-padding:0;clip-rule:nonzero;display:inline;overflow:visible;visibility:visible;opacity:1;isolation:auto;mix-blend-mode:normal;color-interpolation:sRGB;color-interpolation-filters:linearRGB;solid-color:#000000;solid-opacity:1;vector-effect:none;fill:#000000;fill-opacity:1;fill-rule:nonzero;stroke:none;stroke-width:0.26458332;stroke-linecap:butt;stroke-linejoin:miter;stroke-miterlimit:4;stroke-dasharray:none;stroke-dashoffset:0;stroke-opacity:1;color-rendering:auto;image-rendering:auto;shape-rendering:auto;text-rendering:auto;enable-background:accumulate"
       d="m 50.18518,122.11896 c -0.47202,-0.0183 -0.78544,0.24544 -0.96093,0.5 -0.1755,0.25456 -0.23438,0.51172 -0.23438,0.51172 l 0.25781,0.0586 c 0,0 0.0497,-0.21147 0.19336,-0.41992 0.14371,-0.20845 0.36135,-0.40115 0.73438,-0.38672 0.0742,0.003 0.12628,0.0279 0.17969,0.082 0.0534,0.0542 0.10436,0.14197 0.14257,0.26758 0.0764,0.25121 0.10041,0.64091 0.0606,1.12891 -0.0797,0.97598 -0.40742,2.35001 -0.98242,3.89843 l 0.24805,0.0918 c 0.58127,-1.56533 0.91519,-2.95439 0.99804,-3.96875 0.0414,-0.50718 0.023,-0.91987 -0.0703,-1.22656 -0.0467,-0.15335 -0.11248,-0.28105 -0.20703,-0.37696 -0.0945,-0.0959 -0.22232,-0.15485 -0.35938,-0.16015 z"
       id="path3749"
       inkscape:connector-curvature="0" />
    <path
       style="color:#000000;font-style:normal;font-variant:normal;font-weight:normal;font-stretch:normal;font-size:medium;line-height:normal;font-family:sans-serif;font-variant-ligatures:normal;font-variant-position:normal;font-variant-caps:normal;font-variant-numeric:normal;font-variant-alternates:normal;font-feature-settings:normal;text-indent:0;text-align:start;text-decoration:none;text-decoration-line:none;text-decoration-style:solid;text-decoration-color:#000000;letter-spacing:normal;word-spacing:normal;text-transform:none;writing-mode:lr-tb;direction:ltr;text-orientation:mixed;dominant-baseline:auto;baseline-shift:baseline;text-anchor:start;white-space:normal;shape-padding:0;clip-rule:nonzero;display:inline;overflow:visible;visibility:visible;opacity:1;isolation:auto;mix-blend-mode:normal;color-interpolation:sRGB;color-interpolation-filters:linearRGB;solid-color:#000000;solid-opacity:1;vector-effect:none;fill:#000000;fill-opacity:1;fill-rule:nonzero;stroke:none;stroke-width:0.26458332;stroke-linecap:butt;stroke-linejoin:miter;stroke-miterlimit:4;stroke-dasharray:none;stroke-dashoffset:0;stroke-opacity:1;color-rendering:auto;image-rendering:auto;shape-rendering:auto;text-rendering:auto;enable-background:accumulate"
       d="m 49.59143,121.99786 c -0.46471,-0.018 -0.77689,0.20063 -0.95507,0.41993 -0.17819,0.21929 -0.23829,0.44726 -0.23829,0.44726 l 0.25586,0.0684 c 0,0 0.0465,-0.1741 0.1875,-0.34765 0.14102,-0.17356 0.35991,-0.33894 0.74024,-0.32422 0.1059,0.004 0.1785,0.0608 0.25,0.22656 0.0715,0.16573 0.11741,0.42978 0.12305,0.76367 0.0113,0.66777 -0.12741,1.61635 -0.41211,2.69336 l 0.25585,0.0684 c 0.28905,-1.09341 0.43187,-2.05755 0.41993,-2.76563 -0.006,-0.35403 -0.048,-0.64401 -0.14258,-0.86328 -0.0946,-0.21927 -0.26622,-0.37827 -0.48438,-0.38672 z"
       id="path3751"
       inkscape:connector-curvature="0" />
    <path
       style="color:#000000;font-style:normal;font-variant:normal;font-weight:normal;font-stretch:normal;font-size:medium;line-height:normal;font-family:sans-serif;font-variant-ligatures:normal;font-variant-position:normal;font-variant-caps:normal;font-variant-numeric:normal;font-variant-alternates:normal;font-feature-settings:normal;text-indent:0;text-align:start;text-decoration:none;text-decoration-line:none;text-decoration-style:solid;text-decoration-color:#000000;letter-spacing:normal;word-spacing:normal;text-transform:none;writing-mode:lr-tb;direction:ltr;text-orientation:mixed;dominant-baseline:auto;baseline-shift:baseline;text-anchor:start;white-space:normal;shape-padding:0;clip-rule:nonzero;display:inline;overflow:visible;visibility:visible;opacity:1;isolation:auto;mix-blend-mode:normal;color-interpolation:sRGB;color-interpolation-filters:linearRGB;solid-color:#000000;solid-opacity:1;vector-effect:none;fill:#000000;fill-opacity:1;fill-rule:nonzero;stroke:none;stroke-width:0.26458332;stroke-linecap:butt;stroke-linejoin:miter;stroke-miterlimit:4;stroke-dasharray:none;stroke-dashoffset:0;stroke-opacity:1;color-rendering:auto;image-rendering:auto;shape-rendering:auto;text-rendering:auto;enable-background:accumulate"
       d="m 47.49768,121.9256 c -0.29696,0.007 -0.50699,0.17933 -0.62695,0.375 -0.11996,0.19567 -0.16814,0.41576 -0.19531,0.57226 l 0.25976,0.0449 c 0.0247,-0.14243 0.0729,-0.33497 0.16211,-0.48047 0.0892,-0.1455 0.20135,-0.24158 0.40625,-0.2461 0.0227,-5.1e-4 0.0641,0.0123 0.11524,0.0527 0.0511,0.0404 0.108,0.10366 0.16015,0.17773 0.10432,0.14815 0.18925,0.34114 0.2168,0.45313 l 0.25781,-0.0645 c -0.0396,-0.16083 -0.13294,-0.36368 -0.25781,-0.54101 -0.0624,-0.0887 -0.1326,-0.16897 -0.21289,-0.23242 -0.0803,-0.0635 -0.17533,-0.11382 -0.28516,-0.11133 z"
       id="path3775"
       inkscape:connector-curvature="0" />
    <path
       style="color:#000000;font-style:normal;font-variant:normal;font-weight:normal;font-stretch:normal;font-size:medium;line-height:normal;font-family:sans-serif;font-variant-ligatures:normal;font-variant-position:normal;font-variant-caps:normal;font-variant-numeric:normal;font-variant-alternates:normal;font-feature-settings:normal;text-indent:0;text-align:start;text-decoration:none;text-decoration-line:none;text-decoration-style:solid;text-decoration-color:#000000;letter-spacing:normal;word-spacing:normal;text-transform:none;writing-mode:lr-tb;direction:ltr;text-orientation:mixed;dominant-baseline:auto;baseline-shift:baseline;text-anchor:start;white-space:normal;shape-padding:0;clip-rule:nonzero;display:inline;overflow:visible;visibility:visible;opacity:1;isolation:auto;mix-blend-mode:normal;color-interpolation:sRGB;color-interpolation-filters:linearRGB;solid-color:#000000;solid-opacity:1;vector-effect:none;fill:#000000;fill-opacity:1;fill-rule:nonzero;stroke:none;stroke-width:0.26458332;stroke-linecap:butt;stroke-linejoin:miter;stroke-miterlimit:4;stroke-dasharray:none;stroke-dashoffset:0;stroke-opacity:1;color-rendering:auto;image-rendering:auto;shape-rendering:auto;text-rendering:auto;enable-background:accumulate"
       d="m 46.86878,122.00372 c -0.45962,0.10741 -0.69053,0.44256 -0.78906,0.73243 -0.0985,0.28986 -0.082,0.55273 -0.082,0.55273 l 0.26368,-0.0156 c 0,0 -0.01,-0.21528 0.0703,-0.45118 0.0802,-0.2359 0.23376,-0.4755 0.59765,-0.56054 0.15134,-0.0354 0.21876,-0.009 0.3125,0.0918 0.0937,0.10049 0.19107,0.2917 0.29883,0.55469 l 0.2461,-0.0996 c -0.11092,-0.27069 -0.2109,-0.48398 -0.35157,-0.63476 -0.14066,-0.15079 -0.34518,-0.22165 -0.5664,-0.16993 z"
       id="path3777"
       inkscape:connector-curvature="0" />
  </g>
</svg>
