<?xml version="1.0" encoding="UTF-8" standalone="no"?>
<!-- Created with Inkscape (http://www.inkscape.org/) -->

<svg
   xmlns:dc="http://purl.org/dc/elements/1.1/"
   xmlns:cc="http://creativecommons.org/ns#"
   xmlns:rdf="http://www.w3.org/1999/02/22-rdf-syntax-ns#"
   xmlns:svg="http://www.w3.org/2000/svg"
   xmlns="http://www.w3.org/2000/svg"
   xmlns:sodipodi="http://sodipodi.sourceforge.net/DTD/sodipodi-0.dtd"
   xmlns:inkscape="http://www.inkscape.org/namespaces/inkscape"
   width="6.988204mm"
   height="6.4983115mm"
   viewBox="0 0 6.988204 6.4983116"
   version="1.1"
   id="svg2868"
   inkscape:version="0.92.4 (5da689c313, 2019-01-14)"
   sodipodi:docname="opoint.svg">
  <defs
     id="defs2862" />
  <sodipodi:namedview
     id="base"
     pagecolor="#ffffff"
     bordercolor="#666666"
     borderopacity="1.0"
     inkscape:pageopacity="0.0"
     inkscape:pageshadow="2"
     inkscape:zoom="2.8"
     inkscape:cx="38.122755"
     inkscape:cy="-12.637745"
     inkscape:document-units="mm"
     inkscape:current-layer="layer1"
     showgrid="false"
     fit-margin-top="0"
     fit-margin-left="0"
     fit-margin-right="0"
     fit-margin-bottom="0"
     inkscape:window-width="1290"
     inkscape:window-height="704"
     inkscape:window-x="70"
     inkscape:window-y="27"
     inkscape:window-maximized="1" />
  <metadata
     id="metadata2865">
    <rdf:RDF>
      <cc:Work
         rdf:about="">
        <dc:format>image/svg+xml</dc:format>
        <dc:type
           rdf:resource="http://purl.org/dc/dcmitype/StillImage" />
        <dc:title></dc:title>
      </cc:Work>
    </rdf:RDF>
  </metadata>
  <g
     inkscape:label="Layer 1"
     inkscape:groupmode="layer"
     id="layer1"
     transform="translate(-20.623325,-94.22921)">
    <path
       style="color:#000000;font-style:normal;font-variant:normal;font-weight:normal;font-stretch:normal;font-size:medium;line-height:normal;font-family:sans-serif;font-variant-ligatures:normal;font-variant-position:normal;font-variant-caps:normal;font-variant-numeric:normal;font-variant-alternates:normal;font-feature-settings:normal;text-indent:0;text-align:start;text-decoration:none;text-decoration-line:none;text-decoration-style:solid;text-decoration-color:#000000;letter-spacing:normal;word-spacing:normal;text-transform:none;writing-mode:lr-tb;direction:ltr;text-orientation:mixed;dominant-baseline:auto;baseline-shift:baseline;text-anchor:start;white-space:normal;shape-padding:0;clip-rule:nonzero;display:inline;overflow:visible;visibility:visible;opacity:0.98999999;isolation:auto;mix-blend-mode:normal;color-interpolation:sRGB;color-interpolation-filters:linearRGB;solid-color:#000000;solid-opacity:1;vector-effect:none;fill:#000000;fill-opacity:1;fill-rule:nonzero;stroke:none;stroke-width:1.60000002;stroke-linecap:butt;stroke-linejoin:miter;stroke-miterlimit:4;stroke-dasharray:none;stroke-dashoffset:0;stroke-opacity:1;color-rendering:auto;image-rendering:auto;shape-rendering:auto;text-rendering:auto;enable-background:accumulate"
       d="m 34.242188,38.095703 c -2.426219,1.51e-4 -4.256869,1.902988 -4.578126,4.244141 H 21.080078 V 62.65625 h 26.41211 V 42.339844 h -8.673829 c -0.321033,-2.34138 -2.149783,-4.24399 -4.576171,-4.244141 z m -0.002,1.601563 h 0.002 c 1.78323,1.13e-4 3.210816,1.427718 3.210937,3.210937 -0.0015,0.05631 -0.0032,0.113985 -0.0078,0.169922 l -0.07422,0.863281 h 8.519531 v 3.5 H 22.673828 v -3.5 h 8.416016 l -0.05273,-0.855468 c -0.0038,-0.06085 -0.0074,-0.116507 -0.0078,-0.177735 1.21e-4,-1.783219 1.427703,-3.210824 3.210937,-3.210937 z M 22.673828,48.4375 h 2.6875 v 12.623047 h -2.6875 z m 3.683594,0 h 15.849609 v 2.701172 9.921875 h -5.359375 v -5.869141 h -6.009765 v 0.501953 5.367188 h -4.480469 z m 16.853516,0 h 2.679687 v 12.623047 h -2.679687 v -9.921875 z m -16.529297,1.720703 v 0.494141 3.542968 h 4.384765 v -4.037109 z m 10.003906,0.25 v 0.496094 3.542969 H 41.0625 v -4.039063 z m -9,0.746094 H 30.0625 v 2.044922 h -2.376953 z m 9.996094,0.251953 h 2.384765 v 2.042969 h -2.384765 z m -5.847657,4.783203 h 4.017578 v 4.871094 h -4.017578 z"
       transform="matrix(0.26458333,0,0,0.26458333,15.045888,84.149722)"
       id="rect3691"
       inkscape:connector-curvature="0" />
  </g>
</svg>
