<?xml version="1.0" encoding="UTF-8" standalone="no"?>
<!-- Created with Inkscape (http://www.inkscape.org/) -->

<svg
   xmlns:dc="http://purl.org/dc/elements/1.1/"
   xmlns:cc="http://creativecommons.org/ns#"
   xmlns:rdf="http://www.w3.org/1999/02/22-rdf-syntax-ns#"
   xmlns:svg="http://www.w3.org/2000/svg"
   xmlns="http://www.w3.org/2000/svg"
   xmlns:sodipodi="http://sodipodi.sourceforge.net/DTD/sodipodi-0.dtd"
   xmlns:inkscape="http://www.inkscape.org/namespaces/inkscape"
   width="5.7012501mm"
   height="6.3738823mm"
   viewBox="0 0 5.7012501 6.3738824"
   version="1.1"
   id="svg2868"
   inkscape:version="0.92.4 (5da689c313, 2019-01-14)"
   sodipodi:docname="estandarte-encarnado.svg">
  <defs
     id="defs2862" />
  <sodipodi:namedview
     id="base"
     pagecolor="#ffffff"
     bordercolor="#666666"
     borderopacity="1.0"
     inkscape:pageopacity="0.0"
     inkscape:pageshadow="2"
     inkscape:zoom="2.8"
     inkscape:cx="0.30597342"
     inkscape:cy="64.343589"
     inkscape:document-units="mm"
     inkscape:current-layer="layer1"
     showgrid="false"
     fit-margin-top="0"
     fit-margin-left="0"
     fit-margin-right="0"
     fit-margin-bottom="0"
     inkscape:window-width="1290"
     inkscape:window-height="704"
     inkscape:window-x="70"
     inkscape:window-y="27"
     inkscape:window-maximized="1" />
  <metadata
     id="metadata2865">
    <rdf:RDF>
      <cc:Work
         rdf:about="">
        <dc:format>image/svg+xml</dc:format>
        <dc:type
           rdf:resource="http://purl.org/dc/dcmitype/StillImage" />
        <dc:title></dc:title>
      </cc:Work>
    </rdf:RDF>
  </metadata>
  <g
     inkscape:label="Layer 1"
     inkscape:groupmode="layer"
     id="layer1"
     transform="translate(-30.629015,-144.95971)">
    <path
       style="opacity:0.97000002;fill:#000000;fill-opacity:1;stroke:none;stroke-width:0.35380974;stroke-miterlimit:4;stroke-dasharray:none;stroke-opacity:1"
       d="m 31.449521,146.09287 v 2.5926 0.48421 0.28215 c 0,0.36752 0.296006,0.66353 0.663525,0.66353 h 2.695443 c 0.367522,0 0.663008,-0.29601 0.663008,-0.66353 v -0.28215 -0.48421 -2.5926 z m 2.011246,0.72657 0.27182,0.72708 0.775663,0.0336 -0.607716,0.4837 0.20774,0.74827 -0.647507,-0.4284 -0.647504,0.4284 0.207222,-0.74827 -0.607714,-0.48318 0.775663,-0.0341 z m -1.437121,1.95802 h 0.216009 v 0.20825 c 0,0.0686 0.02143,0.11695 0.06356,0.1447 0.04213,0.0294 0.118565,0.0439 0.229444,0.0439 h 0.458888 c 0.148577,0 0.257334,0.0164 0.326078,0.0491 0.07096,0.0326 0.118748,0.0702 0.143142,0.11266 0.02661,-0.0424 0.07617,-0.08 0.149347,-0.11266 0.07318,-0.0326 0.179655,-0.0491 0.31936,-0.0491 h 0.459404 c 0.110876,0 0.187309,-0.0145 0.229441,-0.0439 0.04213,-0.0294 0.06305,-0.0787 0.06305,-0.14728 v -0.20567 h 0.216006 v 0.19843 c 0,0.0751 -0.0109,0.13707 -0.03307,0.18604 -0.02217,0.0506 -0.05538,0.0905 -0.09973,0.11989 -0.04213,0.031 -0.09449,0.0526 -0.15658,0.0641 -0.06209,0.0131 -0.133959,0.0196 -0.216006,0.0196 H 33.85661 c -0.03327,0 -0.06787,0.003 -0.103354,0.01 -0.03326,0.007 -0.06419,0.0159 -0.09302,0.0289 -0.02661,0.0147 -0.04892,0.0321 -0.06666,0.0517 -0.01773,0.0212 -0.02635,0.0456 -0.02635,0.0734 v 0.10025 h -0.212907 v -0.0977 c 0,-0.0277 -0.0091,-0.0522 -0.02687,-0.0734 -0.01553,-0.0196 -0.03784,-0.037 -0.06666,-0.0517 -0.02661,-0.0131 -0.05754,-0.0234 -0.09302,-0.0315 -0.03326,-0.007 -0.06735,-0.01 -0.102835,-0.01 h -0.535885 c -0.08205,0 -0.153916,-0.007 -0.216008,-0.0196 -0.06209,-0.0114 -0.114446,-0.0331 -0.156578,-0.0641 -0.04436,-0.0294 -0.07756,-0.0693 -0.09974,-0.11989 -0.02217,-0.049 -0.03307,-0.11095 -0.03307,-0.18604 z"
       id="rect3885-7"
       inkscape:connector-curvature="0" />
    <path
       style="color:#000000;font-style:normal;font-variant:normal;font-weight:normal;font-stretch:normal;font-size:medium;line-height:normal;font-family:sans-serif;font-variant-ligatures:normal;font-variant-position:normal;font-variant-caps:normal;font-variant-numeric:normal;font-variant-alternates:normal;font-feature-settings:normal;text-indent:0;text-align:start;text-decoration:none;text-decoration-line:none;text-decoration-style:solid;text-decoration-color:#000000;letter-spacing:normal;word-spacing:normal;text-transform:none;writing-mode:lr-tb;direction:ltr;text-orientation:mixed;dominant-baseline:auto;baseline-shift:baseline;text-anchor:start;white-space:normal;shape-padding:0;clip-rule:nonzero;display:inline;overflow:visible;visibility:visible;opacity:1;isolation:auto;mix-blend-mode:normal;color-interpolation:sRGB;color-interpolation-filters:linearRGB;solid-color:#000000;solid-opacity:1;vector-effect:none;fill:#000000;fill-opacity:1;fill-rule:nonzero;stroke:none;stroke-width:0.42333332;stroke-linecap:butt;stroke-linejoin:miter;stroke-miterlimit:4;stroke-dasharray:none;stroke-dashoffset:0;stroke-opacity:1;color-rendering:auto;image-rendering:auto;shape-rendering:auto;text-rendering:auto;enable-background:accumulate"
       d="m 33.248125,145.34727 v 0.60742 h 0.42382 v -0.60742 z m 0,4.72461 v 1.26171 h 0.42382 v -1.26171 z"
       id="path3890-3"
       inkscape:connector-curvature="0" />
    <path
       inkscape:transform-center-y="-0.09990543"
       d="m 33.806692,145.55914 -0.346083,0 -0.346082,0 0.173041,-0.29972 0.173041,-0.29971 0.173042,0.29971 z"
       inkscape:randomized="0"
       inkscape:rounded="0"
       inkscape:flatsided="false"
       sodipodi:arg2="1.5707963"
       sodipodi:arg1="0.52359878"
       sodipodi:r2="0.19981077"
       sodipodi:r1="0.39962158"
       sodipodi:cy="145.35933"
       sodipodi:cx="33.460609"
       sodipodi:sides="3"
       id="path3894-6"
       style="opacity:0.97000002;fill:#000000;fill-opacity:1;stroke:none;stroke-width:0.42333332;stroke-miterlimit:4;stroke-dasharray:none;stroke-opacity:1"
       sodipodi:type="star" />
    <path
       sodipodi:type="star"
       style="opacity:0.97000002;fill:#000000;fill-opacity:1;stroke:none;stroke-width:0.42333332;stroke-miterlimit:4;stroke-dasharray:none;stroke-opacity:1"
       id="path3896-1"
       sodipodi:sides="3"
       sodipodi:cx="33.460609"
       sodipodi:cy="145.35933"
       sodipodi:r1="0.39962158"
       sodipodi:r2="0.19981077"
       sodipodi:arg1="0.52359878"
       sodipodi:arg2="1.5707963"
       inkscape:flatsided="false"
       inkscape:rounded="0"
       inkscape:randomized="0"
       d="m 33.806692,145.55914 -0.346083,0 -0.346082,0 0.173041,-0.29972 0.173041,-0.29971 0.173042,0.29971 z"
       inkscape:transform-center-y="-0.09990543" />
    <path
       style="color:#000000;font-style:normal;font-variant:normal;font-weight:normal;font-stretch:normal;font-size:medium;line-height:normal;font-family:sans-serif;font-variant-ligatures:normal;font-variant-position:normal;font-variant-caps:normal;font-variant-numeric:normal;font-variant-alternates:normal;font-feature-settings:normal;text-indent:0;text-align:start;text-decoration:none;text-decoration-line:none;text-decoration-style:solid;text-decoration-color:#000000;letter-spacing:normal;word-spacing:normal;text-transform:none;writing-mode:lr-tb;direction:ltr;text-orientation:mixed;dominant-baseline:auto;baseline-shift:baseline;text-anchor:start;white-space:normal;shape-padding:0;clip-rule:nonzero;display:inline;overflow:visible;visibility:visible;opacity:1;isolation:auto;mix-blend-mode:normal;color-interpolation:sRGB;color-interpolation-filters:linearRGB;solid-color:#000000;solid-opacity:1;vector-effect:none;fill:#000000;fill-opacity:1;fill-rule:nonzero;stroke:none;stroke-width:0.22873773px;stroke-linecap:butt;stroke-linejoin:miter;stroke-miterlimit:4;stroke-dasharray:none;stroke-dashoffset:0;stroke-opacity:1;color-rendering:auto;image-rendering:auto;shape-rendering:auto;text-rendering:auto;enable-background:accumulate"
       d="m 31.109445,145.92344 v 0.22851 h 4.7461 v -0.22851 z"
       id="path3892-2"
       inkscape:connector-curvature="0" />
    <path
       style="color:#000000;font-style:normal;font-variant:normal;font-weight:normal;font-stretch:normal;font-size:medium;line-height:normal;font-family:sans-serif;font-variant-ligatures:normal;font-variant-position:normal;font-variant-caps:normal;font-variant-numeric:normal;font-variant-alternates:normal;font-feature-settings:normal;text-indent:0;text-align:start;text-decoration:none;text-decoration-line:none;text-decoration-style:solid;text-decoration-color:#000000;letter-spacing:normal;word-spacing:normal;text-transform:none;writing-mode:lr-tb;direction:ltr;text-orientation:mixed;dominant-baseline:auto;baseline-shift:baseline;text-anchor:start;white-space:normal;shape-padding:0;clip-rule:nonzero;display:inline;overflow:visible;visibility:visible;opacity:1;isolation:auto;mix-blend-mode:normal;color-interpolation:sRGB;color-interpolation-filters:linearRGB;solid-color:#000000;solid-opacity:1;vector-effect:none;fill:#000000;fill-opacity:1;fill-rule:nonzero;stroke:none;stroke-width:0.26458332px;stroke-linecap:butt;stroke-linejoin:miter;stroke-miterlimit:4;stroke-dasharray:none;stroke-dashoffset:0;stroke-opacity:1;color-rendering:auto;image-rendering:auto;shape-rendering:auto;text-rendering:auto;enable-background:accumulate"
       d="m 31.367265,146.07969 -0.25977,0.043 c 0,0 0.0338,0.2235 -0.01,0.43554 -0.0218,0.10603 -0.0624,0.20376 -0.125,0.27149 -0.0626,0.0677 -0.14509,0.11375 -0.29297,0.11719 l 0.006,0.26367 c 0.20765,-0.005 0.37232,-0.0841 0.48047,-0.20117 0.10814,-0.1171 0.16142,-0.26216 0.18945,-0.39844 0.056,-0.27256 0.0117,-0.53125 0.0117,-0.53125 z"
       id="path3912-3"
       inkscape:connector-curvature="0" />
    <path
       style="color:#000000;font-style:normal;font-variant:normal;font-weight:normal;font-stretch:normal;font-size:medium;line-height:normal;font-family:sans-serif;font-variant-ligatures:normal;font-variant-position:normal;font-variant-caps:normal;font-variant-numeric:normal;font-variant-alternates:normal;font-feature-settings:normal;text-indent:0;text-align:start;text-decoration:none;text-decoration-line:none;text-decoration-style:solid;text-decoration-color:#000000;letter-spacing:normal;word-spacing:normal;text-transform:none;writing-mode:lr-tb;direction:ltr;text-orientation:mixed;dominant-baseline:auto;baseline-shift:baseline;text-anchor:start;white-space:normal;shape-padding:0;clip-rule:nonzero;display:inline;overflow:visible;visibility:visible;opacity:1;isolation:auto;mix-blend-mode:normal;color-interpolation:sRGB;color-interpolation-filters:linearRGB;solid-color:#000000;solid-opacity:1;vector-effect:none;fill:#000000;fill-opacity:1;fill-rule:nonzero;stroke:none;stroke-width:0.26458332px;stroke-linecap:butt;stroke-linejoin:miter;stroke-miterlimit:4;stroke-dasharray:none;stroke-dashoffset:0;stroke-opacity:1;color-rendering:auto;image-rendering:auto;shape-rendering:auto;text-rendering:auto;enable-background:accumulate"
       d="m 31.365305,146.07188 -0.25586,0.0605 c 0,0 0.0138,0.0646 -0.0234,0.13281 -0.0372,0.0683 -0.12943,0.16231 -0.45703,0.16993 l 0.008,0.26367 c 0.38347,-0.009 0.59439,-0.14856 0.68164,-0.3086 0.0872,-0.16003 0.0469,-0.31835 0.0469,-0.31835 z"
       id="path3914-1"
       inkscape:connector-curvature="0" />
    <path
       style="color:#000000;font-style:normal;font-variant:normal;font-weight:normal;font-stretch:normal;font-size:medium;line-height:normal;font-family:sans-serif;font-variant-ligatures:normal;font-variant-position:normal;font-variant-caps:normal;font-variant-numeric:normal;font-variant-alternates:normal;font-feature-settings:normal;text-indent:0;text-align:start;text-decoration:none;text-decoration-line:none;text-decoration-style:solid;text-decoration-color:#000000;letter-spacing:normal;word-spacing:normal;text-transform:none;writing-mode:lr-tb;direction:ltr;text-orientation:mixed;dominant-baseline:auto;baseline-shift:baseline;text-anchor:start;white-space:normal;shape-padding:0;clip-rule:nonzero;display:inline;overflow:visible;visibility:visible;opacity:1;isolation:auto;mix-blend-mode:normal;color-interpolation:sRGB;color-interpolation-filters:linearRGB;solid-color:#000000;solid-opacity:1;vector-effect:none;fill:#000000;fill-opacity:1;fill-rule:nonzero;stroke:none;stroke-width:0.26458332px;stroke-linecap:butt;stroke-linejoin:miter;stroke-miterlimit:4;stroke-dasharray:none;stroke-dashoffset:0;stroke-opacity:1;color-rendering:auto;image-rendering:auto;shape-rendering:auto;text-rendering:auto;enable-background:accumulate"
       d="m 35.591875,146.08945 c 0,0 -0.0443,0.25869 0.0117,0.53125 0.028,0.13628 0.0813,0.28135 0.18945,0.39844 0.10814,0.1171 0.27281,0.19635 0.48047,0.20117 l 0.008,-0.26367 c -0.147881,-0.003 -0.230421,-0.0495 -0.292971,-0.11719 -0.0626,-0.0677 -0.1032,-0.16741 -0.125,-0.27343 -0.0436,-0.21205 -0.01,-0.4336 -0.01,-0.4336 z"
       id="path3916-9"
       inkscape:connector-curvature="0" />
    <path
       style="color:#000000;font-style:normal;font-variant:normal;font-weight:normal;font-stretch:normal;font-size:medium;line-height:normal;font-family:sans-serif;font-variant-ligatures:normal;font-variant-position:normal;font-variant-caps:normal;font-variant-numeric:normal;font-variant-alternates:normal;font-feature-settings:normal;text-indent:0;text-align:start;text-decoration:none;text-decoration-line:none;text-decoration-style:solid;text-decoration-color:#000000;letter-spacing:normal;word-spacing:normal;text-transform:none;writing-mode:lr-tb;direction:ltr;text-orientation:mixed;dominant-baseline:auto;baseline-shift:baseline;text-anchor:start;white-space:normal;shape-padding:0;clip-rule:nonzero;display:inline;overflow:visible;visibility:visible;opacity:1;isolation:auto;mix-blend-mode:normal;color-interpolation:sRGB;color-interpolation-filters:linearRGB;solid-color:#000000;solid-opacity:1;vector-effect:none;fill:#000000;fill-opacity:1;fill-rule:nonzero;stroke:none;stroke-width:0.26458332px;stroke-linecap:butt;stroke-linejoin:miter;stroke-miterlimit:4;stroke-dasharray:none;stroke-dashoffset:0;stroke-opacity:1;color-rendering:auto;image-rendering:auto;shape-rendering:auto;text-rendering:auto;enable-background:accumulate"
       d="m 35.593825,146.07969 c 0,0 -0.0384,0.16027 0.0488,0.32031 0.0873,0.16004 0.29817,0.29968 0.68164,0.30859 l 0.006,-0.26562 c -0.327601,-0.008 -0.417871,-0.10167 -0.455081,-0.16992 -0.0372,-0.0683 -0.0234,-0.13086 -0.0234,-0.13086 z"
       id="path3918-4"
       inkscape:connector-curvature="0" />
  </g>
</svg>
