<?xml version="1.0" encoding="UTF-8" standalone="no"?>
<!-- Created with Inkscape (http://www.inkscape.org/) -->

<svg
   xmlns:dc="http://purl.org/dc/elements/1.1/"
   xmlns:cc="http://creativecommons.org/ns#"
   xmlns:rdf="http://www.w3.org/1999/02/22-rdf-syntax-ns#"
   xmlns:svg="http://www.w3.org/2000/svg"
   xmlns="http://www.w3.org/2000/svg"
   xmlns:sodipodi="http://sodipodi.sourceforge.net/DTD/sodipodi-0.dtd"
   xmlns:inkscape="http://www.inkscape.org/namespaces/inkscape"
   width="4.685513mm"
   height="6.7401567mm"
   viewBox="0 0 4.685513 6.7401567"
   version="1.1"
   id="svg2868"
   inkscape:version="0.92.4 (5da689c313, 2019-01-14)"
   sodipodi:docname="laursa-dark.svg">
  <defs
     id="defs2862" />
  <sodipodi:namedview
     id="base"
     pagecolor="#ffffff"
     bordercolor="#666666"
     borderopacity="1.0"
     inkscape:pageopacity="0.0"
     inkscape:pageshadow="2"
     inkscape:zoom="2.8"
     inkscape:cx="59.566551"
     inkscape:cy="-49.511772"
     inkscape:document-units="mm"
     inkscape:current-layer="layer1"
     showgrid="false"
     fit-margin-top="0"
     fit-margin-left="0"
     fit-margin-right="0"
     fit-margin-bottom="0"
     inkscape:window-width="1290"
     inkscape:window-height="704"
     inkscape:window-x="70"
     inkscape:window-y="27"
     inkscape:window-maximized="1" />
  <metadata
     id="metadata2865">
    <rdf:RDF>
      <cc:Work
         rdf:about="">
        <dc:format>image/svg+xml</dc:format>
        <dc:type
           rdf:resource="http://purl.org/dc/dcmitype/StillImage" />
        <dc:title></dc:title>
      </cc:Work>
    </rdf:RDF>
  </metadata>
  <g
     inkscape:label="Layer 1"
     inkscape:groupmode="layer"
     id="layer1"
     transform="translate(-15.044148,-84.231112)">
    <g
       id="g2298"
       style="fill:#501616"
       transform="translate(-55.281757,-69.92687)">
      <path
         style="opacity:0.97000002;fill:#000000;fill-opacity:1;stroke:none;stroke-width:1.57412159;stroke-miterlimit:4;stroke-dasharray:none;stroke-opacity:1"
         d="m -17.523438,1.5019531 -0.0059,0.029297 c -1.577786,0.1155584 -2.800781,1.4764176 -2.800781,3.0859375 v 0.6054687 0.044922 21.7089837 h 14.2929686 v -4.273437 h 0.2578125 c 1.1216315,0 2.0448765,-0.932142 2.0449219,-2.052734 v -0.04297 C -3.7344204,19.486792 -4.6576692,18.5625 -5.7792969,18.5625 h -0.2226562 v -0.03125 c 0,-0.07408 -0.013547,-0.141458 -0.021484,-0.212891 1.8765959,-0.377196 3.4023437,-1.84036 3.4023437,-3.839843 V 8.2714844 c 0,-0.2037166 -0.020101,-0.3329705 -0.037109,-0.4355469 -0.00143,-0.00756 -0.00435,-0.02955 -0.00586,-0.037109 l 0.00586,0.013672 v -2.25 c 0,-1.6642016 -1.3186029,-3.0722656 -2.9804688,-3.0722656 -0.5472831,0 -0.9809436,0.254852 -1.3066406,0.5917968 -0.2909858,0.3008504 -0.5083335,0.6686622 -0.7246094,1.0039063 H -14.681641 C -14.8157,3.4570241 -15.039616,2.8361146 -15.449219,2.3730469 -15.910041,1.8521146 -16.550518,1.5019531 -17.318359,1.5019531 Z m 0.207032,0.5019531 c 0.619585,0 1.113929,0.267131 1.498047,0.7011719 0.384117,0.4342299 0.640059,1.0378715 0.738281,1.6699219 l 0.03711,0.2128906 h 7.6328128 l 0.074219,-0.1113281 c 0.2478236,-0.3782551 0.4834177,-0.7691553 0.7519531,-1.046875 0.2685355,-0.2777953 0.5490328,-0.4433594 0.9453125,-0.4433594 1.3788359,0 2.4804688,1.1750632 2.4804688,2.5761719 v 2.2519531 0.042969 0.023437 c 0.018898,0.1213228 0.042969,0.2117777 0.042969,0.390625 v 6.2089849 c 0,1.830085 -1.4224043,3.200867 -3.203125,3.455078 l -0.2578125,0.03711 0.050781,0.259766 c 0.019653,0.09827 0.029297,0.199175 0.029297,0.302734 v 0.0957 c 0,0.03024 -0.00611,0.07871 -0.013672,0.154297 l -0.029297,0.273438 h 0.7597656 c 0.845091,0 1.5429385,0.704696 1.5429688,1.550781 v 0.04297 c -3.03e-5,0.846047 -0.6978853,1.558594 -1.5429688,1.558594 h -0.7597656 v 4.273437 H -19.826172 V 5.2695312 5.2246094 4.6191406 c 0,-1.4201953 1.112973,-2.6132812 2.509766,-2.6132812 z m -0.0059,1.3515626 c -0.635036,0 -1.166015,0.5278734 -1.166015,1.2636718 v 0.6035156 c 0,-0.1182992 0.0078,-0.1096608 0.0078,0.044922 V 25.125 h 10.5859378 v -4.273438 h 2.1113281 c 0.1243464,0 0.1992187,-0.07449 0.1992187,-0.199218 v -0.04492 c 0,-0.124347 -0.074494,-0.199219 -0.1992187,-0.199219 h -2.1113281 v -0.03516 c -0.038173,0.0024 -0.074503,0.01172 -0.1132813,0.01172 H -11.5625 c -0.974132,0 -1.757812,-0.785631 -1.757812,-1.759766 v -0.09766 c 0,-0.974136 0.78368,-1.759766 1.757812,-1.759766 h 3.5546875 c 0.044825,0 0.086904,0.01185 0.1308594,0.01563 h 1.1113281 c 0.9061493,0 1.6692851,-0.507676 2.046875,-1.253906 -1.3614161,-0.530948 -2.0846985,-1.492323 -2.4160156,-2.339844 -0.3737953,-0.957127 -0.2949219,-1.808594 -0.2949219,-1.808594 l 0.9960937,0.0957 c 0,0 -0.056839,0.619178 0.2285157,1.34961 0.244233,0.62502 0.7038565,1.301895 1.734375,1.726562 6.992e-4,-0.02646 0.00781,-0.04732 0.00781,-0.07226 v -0.939453 l -0.703125,-0.40625 c -0.5806904,-0.335244 -0.7851576,-1.06015 -0.4589844,-1.625 0.2410961,-0.417525 0.7029572,-0.622823 1.1621094,-0.56836 V 8.2734375 c 0,-0.055559 -0.020405,-0.160882 -0.042969,-0.3339844 l -0.00781,-0.050781 V 5.5625 c 0,-0.7157669 -0.5138515,-1.2246094 -1.1308593,-1.2246094 -0.5355969,0 -0.9753875,0.3871041 -1.0917969,0.9589844 L -6.8691406,5.9394531 H -16.164062 V 4.6191406 c 0,-0.7349291 -0.52313,-1.2636718 -1.158204,-1.2636718 z m 6.570313,5.9140624 0.501953,0.8710938 -3.75,2.162109 -0.501953,-0.863281 z m 1.1640624,1.4902348 c 0.4656491,-0.06312 0.9370636,0.146665 1.1816406,0.570312 0.3260976,0.564851 0.1198474,1.28968 -0.4609375,1.625 l -3.2910155,1.902344 c -0.580796,0.335244 -1.310614,0.14891 -1.636719,-0.416016 -0.326098,-0.56485 -0.121816,-1.287727 0.458984,-1.623047 l 3.292969,-1.902343 c 0.1452097,-0.08391 0.2998645,-0.135463 0.4550784,-0.15625 z"
         transform="matrix(0.26458333,0,0,0.26458333,75.704916,153.76059)"
         id="rect2287"
         inkscape:connector-curvature="0" />
    </g>
  </g>
</svg>
