<?xml version="1.0" encoding="UTF-8" standalone="no"?>
<!-- Created with Inkscape (http://www.inkscape.org/) -->

<svg
   xmlns:dc="http://purl.org/dc/elements/1.1/"
   xmlns:cc="http://creativecommons.org/ns#"
   xmlns:rdf="http://www.w3.org/1999/02/22-rdf-syntax-ns#"
   xmlns:svg="http://www.w3.org/2000/svg"
   xmlns="http://www.w3.org/2000/svg"
   xmlns:sodipodi="http://sodipodi.sourceforge.net/DTD/sodipodi-0.dtd"
   xmlns:inkscape="http://www.inkscape.org/namespaces/inkscape"
   width="4.8178101mm"
   height="6.6075401mm"
   viewBox="0 0 4.8178101 6.6075402"
   version="1.1"
   id="svg2868"
   inkscape:version="0.92.4 (5da689c313, 2019-01-14)"
   sodipodi:docname="laursa.svg">
  <defs
     id="defs2862" />
  <sodipodi:namedview
     id="base"
     pagecolor="#ffffff"
     bordercolor="#666666"
     borderopacity="1.0"
     inkscape:pageopacity="0.0"
     inkscape:pageshadow="2"
     inkscape:zoom="2.8"
     inkscape:cx="-22.772721"
     inkscape:cy="41.277512"
     inkscape:document-units="mm"
     inkscape:current-layer="layer1"
     showgrid="false"
     fit-margin-top="0"
     fit-margin-left="0"
     fit-margin-right="0"
     fit-margin-bottom="0"
     inkscape:window-width="1290"
     inkscape:window-height="704"
     inkscape:window-x="70"
     inkscape:window-y="27"
     inkscape:window-maximized="1" />
  <metadata
     id="metadata2865">
    <rdf:RDF>
      <cc:Work
         rdf:about="">
        <dc:format>image/svg+xml</dc:format>
        <dc:type
           rdf:resource="http://purl.org/dc/dcmitype/StillImage" />
        <dc:title></dc:title>
      </cc:Work>
    </rdf:RDF>
  </metadata>
  <g
     inkscape:label="Layer 1"
     inkscape:groupmode="layer"
     id="layer1"
     transform="translate(-36.735253,-108.38506)">
    <path
       style="color:#000000;font-style:normal;font-variant:normal;font-weight:normal;font-stretch:normal;font-size:medium;line-height:normal;font-family:sans-serif;font-variant-ligatures:normal;font-variant-position:normal;font-variant-caps:normal;font-variant-numeric:normal;font-variant-alternates:normal;font-feature-settings:normal;text-indent:0;text-align:start;text-decoration:none;text-decoration-line:none;text-decoration-style:solid;text-decoration-color:#000000;letter-spacing:normal;word-spacing:normal;text-transform:none;writing-mode:lr-tb;direction:ltr;text-orientation:mixed;dominant-baseline:auto;baseline-shift:baseline;text-anchor:start;white-space:normal;shape-padding:0;clip-rule:nonzero;display:inline;overflow:visible;visibility:visible;opacity:0.98999999;isolation:auto;mix-blend-mode:normal;color-interpolation:sRGB;color-interpolation-filters:linearRGB;solid-color:#000000;solid-opacity:1;vector-effect:none;fill:#000000;fill-opacity:1;fill-rule:nonzero;stroke:none;stroke-width:0.42333335;stroke-linecap:butt;stroke-linejoin:miter;stroke-miterlimit:4;stroke-dasharray:none;stroke-dashoffset:0;stroke-opacity:1;color-rendering:auto;image-rendering:auto;shape-rendering:auto;text-rendering:auto;enable-background:accumulate"
       d="m 37.465723,108.3852 c -0.40715,0 -0.73047,0.34741 -0.73047,0.75781 v 0.16015 c 0,0.0393 0,0.0451 0,0.0117 v 5.67774 h 3.64844 v -1.13086 h 0.13477 c 0.26018,0 0.4746,-0.21639 0.47461,-0.47656 v -0.0117 c -1e-5,-0.26018 -0.21443,-0.47656 -0.47461,-0.47656 h -0.13477 v -0.16602 c 0.5004,-0.0705 0.90625,-0.45924 0.90625,-0.97852 v -1.64257 c 0,-0.0529 -0.007,-0.0854 -0.0117,-0.11524 v -0.006 -0.5957 c 0,-0.40552 -0.32039,-0.74805 -0.72265,-0.74805 -0.24965,0 -0.37477,0.22672 -0.50391,0.42383 h -1.92774 c -0.0554,-0.35649 -0.29111,-0.68359 -0.6582,-0.68359 z m 0,0.42382 c 0.16803,0 0.30664,0.13954 0.30664,0.33399 v 0.34961 h 2.45899 l 0.0352,-0.16992 c 0.0308,-0.15131 0.14736,-0.25391 0.28907,-0.25391 0.16325,0 0.29882,0.13484 0.29882,0.32422 v 0.61523 l 0.002,0.0137 c 0.006,0.0458 0.0117,0.0732 0.0117,0.0879 v 1.64257 c 0,0.34068 -0.26855,0.60938 -0.60938,0.60938 h -0.29883 v 0.95898 h 0.5586 c 0.033,0 0.0527,0.0198 0.0527,0.0527 v 0.0117 c 0,0.033 -0.0198,0.0527 -0.0527,0.0527 h -0.5586 v 1.13086 h -2.800791 v -5.25391 c 0,-0.0409 -0.002,-0.043 -0.002,-0.0117 v -0.16015 c 0,-0.19468 0.14057,-0.33399 0.30859,-0.33399 z"
       id="rect3659"
       inkscape:connector-curvature="0" />
    <rect
       style="opacity:0.98999999;fill:#000000;fill-opacity:1;stroke:none;stroke-width:0.57419866;stroke-miterlimit:4;stroke-dasharray:none;stroke-opacity:1"
       id="rect3674"
       width="1.6464319"
       height="0.62297422"
       x="20.970387"
       y="-116.28254"
       rx="0.32029179"
       transform="rotate(150)" />
    <path
       style="opacity:0.98999999;fill:#000000;fill-opacity:1;stroke:none;stroke-width:0.57419866;stroke-miterlimit:4;stroke-dasharray:none;stroke-opacity:1"
       d="m 41.180263,110.96455 -0.18681,-0.10785 c -0.15366,-0.0887 -0.34684,-0.0398 -0.43312,0.10961 -0.0863,0.14945 -0.032,0.34118 0.12164,0.4299 l 0.41121,0.23742 m 0,0 0.45988,0.26551"
       id="rect3676"
       inkscape:connector-curvature="0"
       sodipodi:nodetypes="csssccc" />
    <path
       style="color:#000000;font-style:normal;font-variant:normal;font-weight:normal;font-stretch:normal;font-size:medium;line-height:normal;font-family:sans-serif;font-variant-ligatures:normal;font-variant-position:normal;font-variant-caps:normal;font-variant-numeric:normal;font-variant-alternates:normal;font-feature-settings:normal;text-indent:0;text-align:start;text-decoration:none;text-decoration-line:none;text-decoration-style:solid;text-decoration-color:#000000;letter-spacing:normal;word-spacing:normal;text-transform:none;writing-mode:lr-tb;direction:ltr;text-orientation:mixed;dominant-baseline:auto;baseline-shift:baseline;text-anchor:start;white-space:normal;shape-padding:0;clip-rule:nonzero;display:inline;overflow:visible;visibility:visible;opacity:1;isolation:auto;mix-blend-mode:normal;color-interpolation:sRGB;color-interpolation-filters:linearRGB;solid-color:#000000;solid-opacity:1;vector-effect:none;fill:#000000;fill-opacity:1;fill-rule:nonzero;stroke:none;stroke-width:0.26458332;stroke-linecap:butt;stroke-linejoin:miter;stroke-miterlimit:4;stroke-dasharray:none;stroke-dashoffset:0;stroke-opacity:1;color-rendering:auto;image-rendering:auto;shape-rendering:auto;text-rendering:auto;enable-background:accumulate"
       d="m 39.204003,110.37348 -0.99219,0.57422 0.13282,0.22851 0.99218,-0.57226 z"
       id="path3679"
       inkscape:connector-curvature="0" />
    <path
       style="color:#000000;font-style:normal;font-variant:normal;font-weight:normal;font-stretch:normal;font-size:medium;line-height:normal;font-family:sans-serif;font-variant-ligatures:normal;font-variant-position:normal;font-variant-caps:normal;font-variant-numeric:normal;font-variant-alternates:normal;font-feature-settings:normal;text-indent:0;text-align:start;text-decoration:none;text-decoration-line:none;text-decoration-style:solid;text-decoration-color:#000000;letter-spacing:normal;word-spacing:normal;text-transform:none;writing-mode:lr-tb;direction:ltr;text-orientation:mixed;dominant-baseline:auto;baseline-shift:baseline;text-anchor:start;white-space:normal;shape-padding:0;clip-rule:nonzero;display:inline;overflow:visible;visibility:visible;opacity:1;isolation:auto;mix-blend-mode:normal;color-interpolation:sRGB;color-interpolation-filters:linearRGB;solid-color:#000000;solid-opacity:1;vector-effect:none;fill:#000000;fill-opacity:1;fill-rule:nonzero;stroke:none;stroke-width:0.26458332px;stroke-linecap:butt;stroke-linejoin:miter;stroke-miterlimit:4;stroke-dasharray:none;stroke-dashoffset:0;stroke-opacity:1;color-rendering:auto;image-rendering:auto;shape-rendering:auto;text-rendering:auto;enable-background:accumulate"
       d="m 40.082913,110.93207 c 0,0 -0.0208,0.22528 0.0781,0.47852 0.099,0.25324 0.32957,0.54546 0.78711,0.66797 l 0.0684,-0.25586 c -0.38181,-0.10223 -0.53385,-0.31455 -0.60937,-0.50782 -0.0755,-0.19326 -0.0605,-0.35742 -0.0605,-0.35742 z"
       id="path3681"
       inkscape:connector-curvature="0" />
    <rect
       style="opacity:0.98999999;fill:#000000;fill-opacity:1;stroke:none;stroke-width:0.35518575;stroke-miterlimit:4;stroke-dasharray:none;stroke-opacity:1"
       id="rect3685"
       width="1.8708686"
       height="0.95662862"
       x="38.524517"
       y="112.35822"
       rx="0.46523336" />
  </g>
</svg>
