<?xml version="1.0" encoding="UTF-8" standalone="no"?>
<!-- Created with Inkscape (http://www.inkscape.org/) -->

<svg
   xmlns:dc="http://purl.org/dc/elements/1.1/"
   xmlns:cc="http://creativecommons.org/ns#"
   xmlns:rdf="http://www.w3.org/1999/02/22-rdf-syntax-ns#"
   xmlns:svg="http://www.w3.org/2000/svg"
   xmlns="http://www.w3.org/2000/svg"
   xmlns:sodipodi="http://sodipodi.sourceforge.net/DTD/sodipodi-0.dtd"
   xmlns:inkscape="http://www.inkscape.org/namespaces/inkscape"
   width="4.6819782mm"
   height="6.9029369mm"
   viewBox="0 0 4.6819782 6.902937"
   version="1.1"
   id="svg2868"
   inkscape:version="0.92.4 (5da689c313, 2019-01-14)"
   sodipodi:docname="pote.svg">
  <defs
     id="defs2862" />
  <sodipodi:namedview
     id="base"
     pagecolor="#ffffff"
     bordercolor="#666666"
     borderopacity="1.0"
     inkscape:pageopacity="0.0"
     inkscape:pageshadow="2"
     inkscape:zoom="2.8"
     inkscape:cx="59.202833"
     inkscape:cy="-49.204154"
     inkscape:document-units="mm"
     inkscape:current-layer="layer1"
     showgrid="false"
     fit-margin-top="0"
     fit-margin-left="0"
     fit-margin-right="0"
     fit-margin-bottom="0"
     inkscape:window-width="1290"
     inkscape:window-height="704"
     inkscape:window-x="70"
     inkscape:window-y="27"
     inkscape:window-maximized="1" />
  <metadata
     id="metadata2865">
    <rdf:RDF>
      <cc:Work
         rdf:about="">
        <dc:format>image/svg+xml</dc:format>
        <dc:type
           rdf:resource="http://purl.org/dc/dcmitype/StillImage" />
        <dc:title></dc:title>
      </cc:Work>
    </rdf:RDF>
  </metadata>
  <g
     inkscape:label="Layer 1"
     inkscape:groupmode="layer"
     id="layer1"
     transform="translate(-15.045888,-84.149722)">
    <path
       style="color:#000000;font-style:normal;font-variant:normal;font-weight:normal;font-stretch:normal;font-size:medium;line-height:normal;font-family:sans-serif;font-variant-ligatures:normal;font-variant-position:normal;font-variant-caps:normal;font-variant-numeric:normal;font-variant-alternates:normal;font-feature-settings:normal;text-indent:0;text-align:start;text-decoration:none;text-decoration-line:none;text-decoration-style:solid;text-decoration-color:#000000;letter-spacing:normal;word-spacing:normal;text-transform:none;writing-mode:lr-tb;direction:ltr;text-orientation:mixed;dominant-baseline:auto;baseline-shift:baseline;text-anchor:start;white-space:normal;shape-padding:0;clip-rule:nonzero;display:inline;overflow:visible;visibility:visible;opacity:0.97000002;isolation:auto;mix-blend-mode:normal;color-interpolation:sRGB;color-interpolation-filters:linearRGB;solid-color:#000000;solid-opacity:1;vector-effect:none;fill:#000000;fill-opacity:1;fill-rule:nonzero;stroke:none;stroke-width:0.42333335;stroke-linecap:butt;stroke-linejoin:miter;stroke-miterlimit:4;stroke-dasharray:none;stroke-dashoffset:0;stroke-opacity:1;color-rendering:auto;image-rendering:auto;shape-rendering:auto;text-rendering:auto;enable-background:accumulate"
       d="m 17.411679,84.149723 c -0.329017,0 -0.601517,0.27301 -0.601514,0.60203 8e-6,0.006 0.0039,0.01147 0.0041,0.01757 L 15.8629,85.134159 v 0.756026 h 0.187071 c 0.0042,0.07154 -0.01363,0.151161 5.29e-4,0.125057 -0.02904,0.0536 -0.128912,0.106578 -0.293004,0.167948 -0.164092,0.0614 -0.392018,0.131758 -0.517798,0.361218 -0.160377,0.29256 -0.20593,0.591447 -0.191204,0.896587 0.01474,0.30514 0.08403,0.619304 0.152445,0.995804 v 0.0041 0.0021 c 0.09894,0.478851 0.37311,1.090196 0.622702,1.597835 0.24959,0.507651 0.476973,0.904338 0.476973,0.904338 l 0.06046,0.107487 h 2.046904 l 0.06046,-0.107487 c 0,0 0.228277,-0.398581 0.478523,-0.908471 0.250248,-0.509881 0.524362,-1.124777 0.623218,-1.605587 0.07618,-0.37054 0.144314,-0.686197 0.156065,-0.992188 0.01175,-0.30599 -0.03895,-0.604479 -0.197406,-0.894519 -0.124696,-0.228271 -0.351139,-0.299448 -0.513662,-0.361218 -0.162523,-0.0618 -0.260239,-0.114808 -0.288872,-0.167948 0.01389,0.02584 -0.0042,-0.05348 0,-0.125058 h 0.185518 v -0.792716 l -0.906405,-0.320394 c 5.3e-4,-0.009 0.0061,-0.01652 0.0062,-0.02532 2e-6,-0.32902 -0.270947,-0.602031 -0.599964,-0.602031 z m 0,0.424263 c 0.100229,0 0.175702,0.07753 0.175699,0.177767 -3.7e-5,0.026 -0.0044,0.0504 -0.0155,0.0739 l -0.101285,0.212907 1.017508,0.359151 v 0.06873 h -2.203485 v -0.04082 l 1.0511,-0.402559 -0.08785,-0.203088 c -0.0094,-0.022 -0.01394,-0.04421 -0.01394,-0.06821 -3e-6,-0.10023 0.07754,-0.177767 0.177765,-0.177767 z m -0.949296,1.335836 h 1.851568 c -0.0084,0.0906 -0.02667,0.184051 0.03927,0.306441 0.123502,0.2292 0.34881,0.301425 0.511598,0.363285 0.162787,0.0619 0.263938,0.114749 0.293005,0.167949 0.1202,0.22003 0.154397,0.42107 0.144693,0.67386 -0.0097,0.25279 -0.0704,0.554632 -0.14676,0.926042 -0.08095,0.3937 -0.345582,1.004477 -0.589629,1.501717 -0.214442,0.43694 -0.363569,0.699981 -0.408244,0.779281 H 16.611209 C 16.566549,90.549197 16.416727,90.28802 16.202965,89.85325 15.960514,89.36013 15.699,88.754892 15.616955,88.362902 v -0.0021 c -2.22e-4,-0.001 -0.0019,-0.0031 -0.0021,-0.0041 -0.06911,-0.379769 -0.132514,-0.685111 -0.144693,-0.937411 -0.01225,-0.25393 0.01982,-0.451523 0.14056,-0.671793 0.02942,-0.0537 0.130752,-0.106489 0.295071,-0.167949 0.164322,-0.0615 0.39306,-0.132995 0.5178,-0.363285 0.06637,-0.12254 0.04721,-0.215801 0.03876,-0.306441 z"
       id="rect3801"
       inkscape:connector-curvature="0" />
  </g>
</svg>
