<?xml version="1.0" encoding="UTF-8" standalone="no"?>
<!-- Created with Inkscape (http://www.inkscape.org/) -->

<svg
   xmlns:dc="http://purl.org/dc/elements/1.1/"
   xmlns:cc="http://creativecommons.org/ns#"
   xmlns:rdf="http://www.w3.org/1999/02/22-rdf-syntax-ns#"
   xmlns:svg="http://www.w3.org/2000/svg"
   xmlns="http://www.w3.org/2000/svg"
   xmlns:sodipodi="http://sodipodi.sourceforge.net/DTD/sodipodi-0.dtd"
   xmlns:inkscape="http://www.inkscape.org/namespaces/inkscape"
   width="146.27286mm"
   height="139.4131mm"
   viewBox="0 0 146.27286 139.4131"
   version="1.1"
   id="svg8"
   inkscape:version="0.92.4 (5da689c313, 2019-01-14)"
   sodipodi:docname="lorem.svg">
  <defs
     id="defs2" />
  <sodipodi:namedview
     id="base"
     pagecolor="#ffffff"
     bordercolor="#666666"
     borderopacity="1.0"
     inkscape:pageopacity="0.0"
     inkscape:pageshadow="2"
     inkscape:zoom="0.35"
     inkscape:cx="155.5508"
     inkscape:cy="68.229762"
     inkscape:document-units="mm"
     inkscape:current-layer="layer1"
     showgrid="false"
     fit-margin-top="0"
     fit-margin-left="0"
     fit-margin-right="0"
     fit-margin-bottom="0"
     inkscape:window-width="1290"
     inkscape:window-height="704"
     inkscape:window-x="70"
     inkscape:window-y="27"
     inkscape:window-maximized="1" />
  <metadata
     id="metadata5">
    <rdf:RDF>
      <cc:Work
         rdf:about="">
        <dc:format>image/svg+xml</dc:format>
        <dc:type
           rdf:resource="http://purl.org/dc/dcmitype/StillImage" />
        <dc:title></dc:title>
      </cc:Work>
    </rdf:RDF>
  </metadata>
  <g
     inkscape:label="Layer 1"
     inkscape:groupmode="layer"
     id="layer1"
     transform="translate(-26.123613,-30.496497)">
    <path
       style="fill:#2a2a2a;fill-opacity:1;stroke-width:0.16218978"
       d="m 36.517107,169.75617 c -4.61567,-0.27379 -6.81323,-0.49055 -6.93699,-0.68424 -0.0626,-0.098 -0.12659,-2.65976 -0.1421,-5.69271 -0.0443,-8.67049 -0.20794,-25.99981 -0.30929,-32.76234 -0.0508,-3.38976 -0.12306,-10.25039 -0.16058,-15.24584 -0.0375,-4.99544 -0.10607,-11.23569 -0.15233,-13.86722 -0.0667,-3.79674 -0.26992,-19.06722 -0.27297,-20.51701 -3.7e-4,-0.17841 0.005,-1.2367 0.0122,-2.35175 0.017,-2.67712 -0.12212,-11.38818 -0.22279,-13.948323 -0.11931,-3.034129 -0.15883,-10.282319 -0.10413,-19.097848 0.0203,-3.26699 0.0341,-3.204259 -0.69101,-3.127418 -0.16655,0.01765 -0.54972,-0.207221 -0.85149,-0.499709 -0.97312,-0.943179 -0.66053,-2.095106 0.7671,-2.826859 0.30217,-0.154882 0.59685,-0.355165 0.65485,-0.445072 0.0951,-0.147409 -0.11831,-0.626713 -0.6781,-1.52307 -0.16208,-0.259534 -0.12328,-0.577505 0.21548,-1.765762 0.22724,-0.797075 0.44823,-1.681956 0.49109,-1.966403 0.0429,-0.284447 0.11548,-0.577931 0.16138,-0.652186 0.0459,-0.07426 0.13364,-0.461902 0.195,-0.861437 0.0614,-0.399535 0.1265,-0.818398 0.14476,-0.930807 0.0183,-0.112408 0.12005,-0.291222 0.22619,-0.397365 0.26014,-0.260136 0.53886,0.02564 0.61412,0.629658 0.0314,0.25226 0.21121,0.969554 0.3995,1.593984 0.1883,0.624431 0.5251,1.792197 0.74846,2.595037 l 0.40609,1.459708 -0.42939,0.770584 c -0.23616,0.423822 -0.39041,0.833642 -0.34278,0.910713 0.0476,0.07707 0.53933,0.229196 1.09267,0.338058 1.23684,0.243335 1.98395,0.903358 1.81731,1.605495 -0.17396,0.732999 -0.33311,0.908263 -1.05746,1.164495 -0.67934,0.24031 -0.98413,0.677419 -0.67844,0.972976 0.0753,0.07277 5.06336,0.175197 11.08466,0.227607 6.02129,0.05241 11.02079,0.101562 11.11,0.109224 0.0892,0.0077 4.1034,-0.0069 8.92043,-0.03239 4.81704,-0.02548 10.10848,-0.03243 11.75876,-0.01546 1.65028,0.01698 10.590986,0.06087 19.868246,0.09754 9.277257,0.03667 22.487617,0.113451 29.356347,0.170618 6.86874,0.05717 12.89004,0.08808 13.38066,0.0687 1.69743,-0.06705 9.35065,-0.0353 15.36069,0.06374 21.79969,0.359226 19.98228,0.30247 20.08537,0.627253 0.0519,0.163659 0.0503,0.369031 -0.004,0.456378 -0.10735,0.173695 -0.18157,5.701123 -0.32569,24.253651 -0.052,6.69033 -0.12642,15.26611 -0.16546,19.0573 -0.15326,14.88519 -0.25372,27.3618 -0.31303,38.87642 -0.0341,6.6187 -0.10657,12.10615 -0.16107,12.19433 -0.0556,0.09 -0.57788,0.13424 -1.19076,0.10085 -0.60041,-0.0327 -3.71913,-0.10165 -6.93049,-0.15319 -3.21136,-0.0515 -7.84593,-0.13554 -10.29905,-0.18666 -2.45312,-0.0511 -5.73747,-0.11547 -7.29854,-0.14298 -6.01948,-0.10611 -10.96988,-0.28432 -11.47804,-0.41321 -0.29884,-0.0758 -0.7589,-0.0687 -1.05424,0.0162 -0.58164,0.16725 -3.70114,0.189 -6.68721,0.0466 -1.07045,-0.051 -2.27471,-0.0889 -2.67613,-0.0841 -0.40142,0.005 -1.82464,0.0212 -3.1627,0.0365 -3.50368,0.04 -18.05821,-0.15384 -31.870297,-0.42447 -2.98834,-0.0586 -8.681206,-0.12474 -12.650796,-0.14708 -3.96959,-0.0223 -10.17335,-0.0891 -13.78613,-0.14824 -3.61278,-0.0592 -9.05019,-0.14684 -12.08314,-0.19477 -9.46588,-0.14958 -12.40312,-0.21224 -15.12766,-0.32273 l -2.63905,-0.10702 0.0963,0.95001 c 0.19326,1.90595 0.58059,4.53147 0.74565,5.05441 0.0931,0.29492 0.20379,0.7553 0.24599,1.02306 0.0422,0.26776 0.28413,0.97527 0.53762,1.57224 0.2535,0.59698 0.62002,1.55981 0.81449,2.13964 0.19447,0.57983 0.41179,1.12722 0.48292,1.21642 0.0711,0.0892 0.0652,0.89205 -0.0133,1.78409 -0.21104,2.39971 -0.2096,3.4749 0.006,4.37913 0.10628,0.44602 0.23105,1.10289 0.27728,1.45971 0.0462,0.35681 0.26064,1.09911 0.47646,1.64956 0.21582,0.55044 0.3924,1.08465 0.3924,1.18715 0,0.10249 0.20806,0.71042 0.46236,1.35095 0.25429,0.64053 0.62879,1.60251 0.83222,2.13774 0.52253,1.3748 1.90163,4.14353 2.2593,4.53584 0.74513,0.81729 1.17495,2.32407 0.76096,2.66765 -0.22605,0.18761 -0.93227,0.18506 -4.31484,-0.0156 z m 2.27065,-1.79525 c 0,-0.035 -0.41281,-0.49318 -0.91735,-1.01828 -1.20873,-1.25797 -1.82208,-2.58312 -1.78391,-3.85412 0.0175,-0.5834 0.11052,-0.99033 0.24537,-1.07367 0.37183,-0.2298 0.13012,-0.71462 -0.52897,-1.06097 -1.33558,-0.70186 -1.94477,-2.65023 -1.24713,-3.98869 0.36268,-0.6958 0.43446,-1.12779 0.18741,-1.12779 -0.0836,0 -0.37939,-0.46184 -0.65727,-1.0263 -0.42583,-0.86498 -0.51442,-1.25279 -0.56362,-2.46717 -0.0589,-1.45361 0.0485,-1.85771 0.7614,-2.86586 0.15911,-0.22501 0.12825,-0.4167 -0.16389,-1.01802 -0.19796,-0.40745 -0.35992,-0.81907 -0.35992,-0.91471 0,-0.0956 -0.10588,-0.40387 -0.23529,-0.68497 -0.54931,-1.19314 -0.92153,-2.38058 -1.14775,-3.66148 -0.13271,-0.75148 -0.27331,-1.39833 -0.31244,-1.43746 -0.0913,-0.0913 0.0442,16.40256 0.14092,17.15757 0.04,0.31222 0.1195,2.10036 0.17666,3.97365 0.10236,3.35514 0.2455,4.50484 0.58717,4.716 0.0955,0.059 0.73211,0.0985 1.41475,0.0878 0.68264,-0.0107 1.44207,0.0353 1.68762,0.10231 0.48539,0.13238 2.71624,0.26556 2.71624,0.16215 z m -4.82716,-2.06667 c -0.48919,-0.45575 -0.46793,-1.06013 0.0492,-1.39897 0.76658,-0.50228 1.49738,0.18226 1.34486,1.25974 -0.0746,0.52726 -0.89015,0.6087 -1.39407,0.13923 z m -0.23365,-3.68146 c -0.55697,-0.14285 -0.55459,-1.19858 0.003,-1.49071 0.33065,-0.17311 0.99782,0.0508 1.01512,0.34071 0.007,0.11438 0.0354,0.32591 0.0635,0.47006 0.0972,0.49788 -0.45038,0.84195 -1.08203,0.67994 z m -0.98076,-5.57744 c -0.66159,-0.38534 -0.0295,-1.38969 0.75133,-1.19372 0.43024,0.10798 0.55206,0.52352 0.3261,1.11235 -0.11097,0.28919 -0.65065,0.32995 -1.07743,0.0814 z m -0.1776,-7.58215 c -0.35728,-0.39479 -0.33932,-0.78937 0.0453,-0.99521 0.47763,-0.25562 0.79168,-0.20251 0.98963,0.16736 0.13957,0.26079 0.12199,0.4229 -0.0791,0.72986 -0.3085,0.47083 -0.59207,0.4999 -0.95579,0.098 z M 169.94217,136.05024 c 0.11856,-2.80678 0.4068,-27.67546 0.36563,-31.54591 -0.008,-0.71364 -0.011,-2.50178 -0.007,-3.97365 0.003,-1.47187 0.002,-2.89509 -0.003,-3.1627 -0.005,-0.26762 0.0131,-3.11581 0.0407,-6.32932 0.0276,-3.21352 -0.005,-5.93222 -0.0726,-6.04157 -0.0676,-0.10935 -0.0638,-0.19882 0.008,-0.19882 0.11268,-1e-5 0.17827,-10.97871 0.18215,-30.49168 4.9e-4,-2.809938 0.009,-5.958152 0.019,-6.996032 0.0159,-1.665392 -0.0157,-1.900243 -0.26926,-1.999349 -0.15801,-0.06176 -4.77589,-0.144972 -10.26196,-0.184908 -10.80289,-0.07864 -19.54387,-0.183128 -19.54387,-0.233621 0,-0.08056 -18.45233,-0.284819 -37.70912,-0.417415 -22.420043,-0.154377 -30.860653,-0.202595 -31.302623,-0.178816 -0.68368,0.03679 -36.05318,-0.0066 -38.78451,-0.04753 -1.45907,-0.02188 -1.43003,-0.110427 -1.34404,4.098383 0.0405,1.984146 0.0741,4.957769 0.0747,6.60805 0.006,18.312018 0.12461,37.730608 0.24115,39.412118 0.0525,0.75823 0.0818,1.70704 0.0649,2.10846 -0.0513,1.22308 -0.0163,9.00655 0.083,18.48964 0.16306,15.56302 0.2264,19.12689 0.34331,19.31604 0.0692,0.11203 0.36252,0.15042 0.75109,0.0983 0.35063,-0.047 0.85645,-0.0227 1.12404,0.054 0.89382,0.25634 4.23815,0.47702 8.41437,0.55521 2.27471,0.0426 5.04815,0.11522 6.16321,0.1614 2.02419,0.0838 11.60587,0.26639 17.4354,0.33221 1.69488,0.0191 7.13229,0.0834 12.08314,0.14273 4.950836,0.0594 12.942736,0.13995 17.759776,0.17908 12.751127,0.10359 23.166077,0.21935 30.086197,0.33441 3.34516,0.0556 9.43944,0.12618 13.54285,0.1568 8.3338,0.0622 23.66431,0.25291 23.70699,0.29492 0.0152,0.015 1.54798,0.0272 3.40617,0.0272 h 3.37851 l 0.024,-0.56767 z m -12.98797,-4.66746 c -2.46871,-0.0459 -2.84951,-0.13882 -2.84951,-0.69509 0,-0.40792 0.17058,-0.48313 1.59367,-0.70266 l 1.24465,-0.192 0.0811,-2.18311 c 0.0887,-2.3876 0.0386,-3.39953 -0.16829,-3.39953 -0.0738,0 -0.17766,0.13682 -0.23073,0.30405 -0.10715,0.33758 -1.23974,0.83128 -1.90705,0.83128 -1.03529,0 -1.93602,-0.64837 -2.40633,-1.73214 -0.33123,-0.76328 -0.61746,-0.95674 -1.48323,-1.00246 -0.44436,-0.0235 -0.64279,0.0481 -0.76469,0.27589 -0.0905,0.16917 -0.12025,0.35196 -0.066,0.40619 0.19999,0.19999 -0.42056,0.28725 -0.75811,0.10659 -0.32094,-0.17176 -0.34483,-0.29363 -0.29651,-1.51274 0.052,-1.31108 0.0576,-1.32651 0.49858,-1.37725 0.40145,-0.0462 0.44602,-0.001 0.44602,0.45003 0,0.38916 0.0933,0.53682 0.41673,0.6598 0.59186,0.22502 1.20192,0.0254 1.38372,-0.4528 0.0852,-0.22408 0.11964,-0.44268 0.0765,-0.48577 -0.0862,-0.0862 0.58839,-1.43233 0.91687,-1.82954 0.11365,-0.13743 0.46898,-0.44762 0.78962,-0.6893 0.49007,-0.3694 0.74552,-0.43942 1.60308,-0.43942 1.79311,0 2.98163,0.62503 2.91246,1.53165 -0.0649,0.85002 -0.0168,0.91737 0.61867,0.86766 0.52969,-0.0414 0.60153,-0.006 0.55645,0.27682 -0.076,0.47622 -0.49521,0.72985 -1.20632,0.72985 -0.34563,0 -0.77152,0.0766 -0.94642,0.17019 -0.40385,0.21613 -1.28258,-0.35732 -1.28258,-0.83701 0,-0.27052 0.0946,-0.31296 0.60821,-0.27279 0.51485,0.0403 0.61577,-0.005 0.6574,-0.29714 0.10795,-0.75667 -1.14603,-1.2519 -2.22466,-0.87859 -1.30012,0.44997 -1.84259,1.71749 -1.48083,3.46008 0.24418,1.17617 0.75498,1.73687 1.5823,1.73687 0.74411,0 1.50634,-0.61729 1.50634,-1.2199 0,-0.45915 0.40785,-0.61565 1.39408,-0.53493 0.45859,0.0375 0.61867,0.11807 0.58029,0.29195 -0.045,0.20364 -0.0804,6.21165 -0.0413,6.99947 0.0161,0.32387 0.89045,0.48919 1.23906,0.23428 0.27727,-0.20274 0.51961,-2.95649 0.43649,-4.95992 -0.0626,-1.50975 -0.061,-1.39145 -0.0441,-3.23154 0.0137,-1.4899 0.002,-1.53949 -0.45946,-1.961 -0.37635,-0.34374 -0.46093,-0.54018 -0.41233,-0.95762 0.0336,-0.28884 0.1027,-0.5924 0.15349,-0.67458 0.11066,-0.17905 2.22642,-0.17897 4.10145,1.5e-4 1.59393,0.15227 2.1296,0.52839 2.24804,1.57846 0.1248,1.10651 0.0799,1.21775 -0.83431,2.0686 -0.97438,0.90682 -1.11534,1.36263 -0.61322,1.98287 0.15413,0.19038 0.55578,0.43386 0.89256,0.54106 0.93581,0.29787 1.46938,0.84817 2.05567,2.12016 0.64953,1.40917 0.6901,2.3623 0.13524,3.17727 -0.20372,0.29921 -0.46163,0.54452 -0.57313,0.54513 -0.11151,6.5e-4 -0.20274,0.0658 -0.20274,0.14482 0,0.22096 -0.97093,0.62693 -1.7866,0.74702 -0.60658,0.0893 -0.80855,0.0479 -1.17588,-0.24103 -0.25404,-0.19983 -0.44351,-0.50857 -0.44351,-0.72271 0,-0.57216 -0.35265,-0.78118 -0.79512,-0.47127 -0.40416,0.28309 -0.63149,0.1641 -0.73742,-0.38599 -0.12078,-0.62711 0.36961,-0.85233 1.70304,-0.78214 1.50118,0.079 1.77578,0.18347 1.77578,0.67553 0,0.30882 -0.0853,0.38812 -0.41737,0.38812 -0.54156,0 -0.4804,0.54332 0.07,0.62157 0.72271,0.10276 1.67369,-1.20913 1.72853,-2.38453 0.0211,-0.45266 -0.12326,-0.70722 -0.84065,-1.48208 -0.47638,-0.51455 -1.11715,-1.05466 -1.42393,-1.20023 -0.61856,-0.29353 -1.07625,-0.80504 -1.38302,-1.54565 -0.2097,-0.50625 -0.0597,-0.90945 1.07389,-2.88587 0.46938,-0.8184 0.19797,-1.08663 -1.16002,-1.1464 -0.60628,-0.0267 -1.16252,0.0117 -1.2361,0.0853 -0.12586,0.12586 -0.33766,5.81117 -0.37023,9.93793 l -0.0147,1.86518 h -0.81095 c -0.44602,0 -1.9007,-0.0203 -3.23261,-0.0451 z M 36.420357,130.51047 c -0.07,-0.11334 -0.15162,-0.46419 -0.18128,-0.77968 -0.0813,-0.86499 -0.15796,-0.97909 -0.65759,-0.97909 -0.52627,0 -0.84847,-0.25868 -0.84847,-0.6812 0,-0.29961 0.057,-0.32224 0.89204,-0.35433 l 0.48657,-0.0187 v -1.19848 -1.19847 l -0.7705,-0.19564 c -0.92826,-0.2357 -1.36888,-0.60133 -1.75642,-1.4575 -0.3512,-0.77588 -0.17633,-1.09975 0.55432,-1.02663 0.37721,0.0378 0.49389,0.13347 0.51443,0.42202 0.0435,0.6108 0.48124,0.93578 1.0096,0.7495 l 0.44857,-0.15815 0.007,-2.02307 c 0.009,-2.66188 -0.0253,-2.75293 -1.04931,-2.75293 -0.87088,0 -1.1773,-0.25612 -1.02108,-0.85349 0.0763,-0.29186 0.166,-0.30922 0.99248,-0.19215 0.49971,0.0708 2.86381,0.14004 5.25354,0.15392 l 4.34497,0.0252 0.0572,2.87566 c 0.0315,1.58161 0.094,2.91244 0.13896,2.95739 0.045,0.045 0.39535,0.0954 0.77867,0.11208 0.57316,0.025 0.71299,-0.0273 0.78724,-0.29403 0.18102,-0.65032 0.4319,-0.878 1.08205,-0.98196 0.89921,-0.14379 1.05311,0.22922 0.38363,0.92978 -0.67096,0.70208 -0.62809,1.26605 0.11381,1.49745 0.26385,0.0823 0.3504,0.23226 0.34024,0.58953 -0.008,0.26353 -0.0937,0.48722 -0.19168,0.4971 -0.59587,0.0601 -1.03816,-0.10853 -1.39447,-0.53159 -0.45412,-0.53918 -1.63703,-0.82866 -1.86682,-0.45686 -0.1476,0.23882 -0.14292,1.97475 0.007,2.44582 0.0836,0.26328 0.19482,0.30847 0.5613,0.22798 0.60171,-0.13216 0.83245,0.21731 0.35347,0.53534 -0.19364,0.12857 -0.35207,0.30104 -0.35207,0.38325 0,0.0822 -0.18474,0.34701 -0.41054,0.58843 -0.2258,0.24142 -0.45267,0.60316 -0.50415,0.80387 -0.14051,0.54776 -0.50933,0.43993 -0.7896,-0.23086 -0.13691,-0.32768 -0.54646,-0.87046 -0.91011,-1.20618 -0.81072,-0.74845 -0.71815,-1.03374 0.29056,-0.89549 l 0.71499,0.098 -0.0471,-1.32903 -0.0471,-1.32903 -0.64876,-0.13388 c -1.81659,-0.37488 -3.22652,-1.93888 -3.14799,-3.49201 0.0463,-0.91487 0.19052,-1.24854 0.83394,-1.92875 0.26693,-0.28221 0.43633,-0.5924 0.37644,-0.68931 -0.0685,-0.1109 -0.82673,-0.17621 -2.0456,-0.17621 h -1.93671 v 2.40041 c 0,1.65073 0.0608,2.4612 0.19463,2.59504 0.10705,0.10704 0.50679,0.19463 0.88831,0.19463 0.76744,0 1.09776,0.32061 1.28263,1.24492 0.0805,0.40255 0.0274,0.54874 -0.27702,0.76193 -0.52114,0.36502 -0.62037,0.33651 -0.81977,-0.2355 -0.16969,-0.48677 -0.68201,-0.82449 -1.04275,-0.68739 -0.23663,0.0899 -0.28725,2.06676 -0.0636,2.48461 0.12856,0.24022 0.33965,0.32398 0.81644,0.32398 0.52095,0 0.64306,0.0578 0.64306,0.30452 0,0.42685 -0.34228,0.66307 -0.9017,0.62229 -0.46547,-0.0339 -0.47886,-0.0133 -0.55801,0.85728 -0.069,0.75933 -0.13311,0.89946 -0.43072,0.94187 -0.19229,0.0274 -0.40693,-0.0429 -0.47697,-0.15624 z m 7.18008,-8.61935 c 0.0154,-0.99912 -0.008,-1.9443 -0.0515,-2.1004 -0.147,-0.52445 -1.03939,-0.28207 -1.7934,0.4871 -0.71705,0.73146 -0.63699,2.35249 0.15163,3.07014 0.47419,0.43152 1.28879,0.70778 1.50298,0.50971 0.0892,-0.0825 0.17482,-0.96744 0.19027,-1.96655 z m 31.03885,-9.26816 c -0.33505,-0.40371 -0.63945,-1.87528 -0.55864,-2.70069 0.0947,-0.96711 0.44567,-1.99645 0.92299,-2.70682 0.46201,-0.6876 2.25632,-1.61363 3.71655,-1.9181 1.08613,-0.22646 2.31697,-0.63962 2.64436,-0.88763 0.0903,-0.0684 0.601176,-0.28499 1.135326,-0.48131 0.53414,-0.19632 1.12184,-0.49373 1.306,-0.66092 0.18416,-0.16718 0.39524,-0.30397 0.46908,-0.30397 0.30873,0 1.91175,-1.54884 2.79101,-2.69669 1.60998,-2.10178 3.42922,-4.93469 3.86001,-6.01078 0.72238,-1.80448 0.48837,-2.7106 -0.75201,-2.91189 -0.60409,-0.098 -0.90495,0.12261 -1.02628,0.75265 -0.0379,0.19661 -0.14395,0.44798 -0.23576,0.55859 -0.0918,0.11061 -0.12928,0.23873 -0.0833,0.28472 0.046,0.046 -0.0276,0.17593 -0.16359,0.28876 -0.13596,0.11284 -0.24721,0.27431 -0.24721,0.35882 0,0.62088 -3.05627,4.14168 -4.37912,5.04472 -0.40142,0.27403 -0.76635,0.53955 -0.81095,0.59004 -1.03795,1.17495 -4.571056,3.08289 -7.379626,3.98512 -0.35682,0.11462 -1.26914,0.44121 -2.02738,0.72575 -1.7402,0.65303 -3.73607,1.23254 -4.78459,1.38921 -1.31919,0.19712 -3.98493,0.21832 -4.97726,0.0396 -0.9144,-0.1647 -0.92866,-0.16118 -1.6219,0.40083 -1.03881,0.84218 -1.3096,0.87857 -2.19134,0.29453 -0.41427,-0.2744 -0.85275,-0.49891 -0.9744,-0.49891 -0.22776,0 -0.94834,0.41727 -1.30151,0.75367 -0.22814,0.2173 -0.61009,1.31679 -0.76102,2.19064 -0.2061,1.19325 -1.06022,0.81018 -1.07581,-0.4825 -0.0116,-0.96328 -0.32488,-1.89414 -0.63743,-1.89414 -0.36284,0 -0.65041,0.74939 -0.75968,1.9797 -0.0538,0.60605 -0.1698,1.19313 -0.25771,1.30464 -0.43206,0.54802 -0.95,-0.11937 -1.03412,-1.33249 -0.0311,-0.44909 -0.0818,-0.95857 -0.1126,-1.13217 -0.0605,-0.34091 -0.51712,-0.70864 -0.67898,-0.54677 -0.0546,0.0546 -0.29735,0.81774 -0.53946,1.69591 -0.31104,1.12817 -0.51915,1.61187 -0.70924,1.64847 -0.40169,0.0774 -0.82241,-0.69421 -0.8683,-1.59238 -0.08,-1.5654 -0.40534,-2.4334 -0.7919,-2.11259 -0.10578,0.0878 -0.44277,0.96338 -0.74888,1.94577 -0.55968,1.79615 -0.86291,2.18006 -1.06247,1.34515 -0.0586,-0.24531 -0.13693,-0.50014 -0.174,-0.56628 -0.21691,-0.38709 -0.13508,-2.57466 0.14033,-3.75164 0.16965,-0.725 0.32711,-1.40171 0.34992,-1.50381 0.0504,-0.22577 1.16316,-1.59851 1.75284,-2.16242 0.23533,-0.22504 0.85761,-0.63976 1.38285,-0.92159 0.86114,-0.46207 1.17772,-0.53085 3.22141,-0.69988 2.04566,-0.16918 3.65232,-0.44269 4.78036,-0.81376 0.22302,-0.0734 1.39078,-0.2202 2.59504,-0.3263 1.20426,-0.10611 2.44501,-0.28667 2.75723,-0.40126 0.31221,-0.11459 0.96908,-0.2576 1.45971,-0.31779 0.49062,-0.0602 1.03801,-0.16926 1.21642,-0.24237 1.06147,-0.43493 1.36852,-0.55253 2.02737,-0.77648 0.40142,-0.13645 1.03495,-0.45797 1.40784,-0.71449 0.37289,-0.25653 0.72039,-0.46642 0.77223,-0.46642 0.0518,0 0.51397,-0.28649 1.02696,-0.63665 1.37984,-0.94187 3.1622,-2.92214 3.36845,-3.74247 0.0112,-0.0446 0.0957,-0.26356 0.18781,-0.48657 0.48191,-1.16708 0.34639,-3.76794 -0.22084,-4.23871 -0.11938,-0.0991 -0.21705,-0.2788 -0.21705,-0.39939 0,-0.37853 -1.0043,-0.76215 -2.35175,-0.89832 -2.66024,-0.26883 -5.11884,-0.3518 -5.47987,-0.18492 -0.19743,0.0913 -1.01583,0.29207 -1.81867,0.44625 -1.47365,0.28299 -2.13429,0.52016 -3.87479,1.39106 -0.52545,0.26293 -1.06305,0.47805 -1.19465,0.47805 -0.13161,0 -0.57752,0.10517 -0.99091,0.23371 -2.28198,0.70955 -6.41703,1.13218 -8.07595,0.82541 -0.72242,-0.13359 -1.92024,-1.1804 -2.02716,-1.77159 -0.0931,-0.51466 -0.53284,-0.68288 -1.17664,-0.45008 -0.31231,0.11293 -0.73521,0.23701 -0.93978,0.27573 -1.03318,0.19555 -1.29368,0.29482 -1.87095,0.713 -0.42631,0.30881 -0.68802,0.6611 -0.82109,1.10526 -0.24752,0.82615 -0.54967,1.09621 -0.973,0.86966 -0.9595,-0.51351 -0.36917,-2.64089 1.09515,-3.94654 0.63286,-0.56428 1.08956,-0.78883 2.46065,-1.20985 0.92597,-0.28433 1.90253,-0.56198 2.17014,-0.61702 0.26762,-0.055 0.74202,-0.15267 1.05424,-0.21697 l 0.56766,-0.11693 -0.0316,-0.88795 c -0.0174,-0.48838 -0.0539,-1.07042 -0.0811,-1.29344 -0.0371,-0.30371 0.0319,-0.41588 0.27489,-0.44694 0.35264,-0.0451 1.18035,0.97384 1.30131,1.60193 0.0369,0.19174 0.10382,0.3853 0.14866,0.43014 0.12212,0.12212 1.61252,-0.31808 1.75682,-0.51888 0.12036,-0.16751 0.0265,-1.67 -0.13929,-2.22847 -0.0441,-0.1486 -9.7e-4,-0.3191 0.0957,-0.37889 0.23938,-0.14794 0.65422,0.22231 0.90896,0.81126 0.11575,0.26761 0.38224,0.69647 0.59221,0.95301 l 0.38175,0.46644 0.55855,-0.28615 c 0.60428,-0.30958 2.00903,-1.42035 2.45882,-1.94425 0.6382,-0.74334 1.33344,-2.72185 1.28234,-3.64927 -0.0123,-0.22301 -0.20779,-0.78489 -0.43445,-1.24861 -0.34666,-0.70925 -0.54608,-0.90603 -1.25576,-1.23911 -1.05491,-0.49512 -2.15481,-0.75607 -3.1868,-0.75607 -0.91588,0 -1.02053,0.14656 -0.90853,1.27238 0.0385,0.38659 -0.0109,0.89707 -0.10969,1.13441 -0.2122,0.50979 -0.19823,0.46915 -0.36428,1.05976 -0.22165,0.78836 -0.8968,1.86223 -1.43623,2.2844 -0.45405,0.35535 -0.54142,0.37402 -0.75427,0.16117 -0.17879,-0.17879 -0.19706,-0.31308 -0.071,-0.52194 0.24341,-0.40329 0.26795,-1.45757 0.0637,-2.73615 -0.18552,-1.16133 -0.49299,-1.6809 -0.99474,-1.6809 -0.25506,0 -0.30066,0.1377 -0.30882,0.9326 -0.0229,2.23099 -0.43212,3.83622 -1.15436,4.52817 -0.46986,0.45015 -0.64273,0.43449 -0.69337,-0.0628 -0.0162,-0.15893 -0.0731,-0.47143 -0.12642,-0.69444 -0.0533,-0.22301 -0.18165,-0.82598 -0.28511,-1.33994 -0.19358,-0.96163 -0.80761,-1.90385 -1.24071,-1.90385 -0.32236,0 -1.19851,0.45461 -1.62278,0.84203 -0.29334,0.26786 -0.39858,0.28577 -0.67283,0.1145 -0.1788,-0.11167 -0.41334,-0.50029 -0.52119,-0.86361 -0.10786,-0.36332 -0.31339,-0.9444 -0.45673,-1.29129 -0.25296,-0.61214 -0.2484,-0.65273 0.15509,-1.37862 0.31344,-0.56388 0.63128,-0.86005 1.29175,-1.20368 0.87521,-0.45535 1.35696,-0.75664 3.1613,-1.97707 1.41088,-0.954297 2.18657,-1.54159 2.8237,-2.137876 1.91857,-1.795591 2.85267,-2.490341 4.2859,-3.1877 0.85517,-0.416098 1.63924,-0.756541 1.74238,-0.756541 0.10314,0 0.49989,-0.183059 0.88167,-0.406797 0.64636,-0.378791 0.72191,-0.498819 1.09748,-1.74354 0.44969,-1.490407 0.75081,-3.001745 0.75081,-3.768379 0,-0.278783 0.0974,-0.640116 0.21651,-0.802964 0.2057,-0.28132 0.23619,-0.274854 0.61126,0.129643 0.75191,0.810902 1.44525,2.427996 1.55091,3.617242 0.0542,0.610287 0.15864,1.186532 0.23203,1.280544 0.22667,0.290344 1.26882,0.07277 1.48863,-0.310791 0.1304,-0.227548 0.19869,-1.114601 0.19869,-2.580935 0,-1.841588 0.0404,-2.226374 0.23003,-2.189562 0.33716,0.06546 1.63238,2.322488 1.98019,3.450648 0.39582,1.28389 0.87677,1.861684 1.68737,2.02716 0.35405,0.07228 1.00865,0.23784 1.45468,0.367918 1.13327,0.33051 2.02964,0.543952 3.81146,0.907573 0.84744,0.17294 2.08819,0.428206 2.75722,0.567256 2.45965,0.511211 5.295186,0.592207 9.407006,0.268711 1.11505,-0.08773 2.75722,-0.203177 3.64927,-0.256555 0.89204,-0.05338 2.13279,-0.166879 2.75722,-0.252218 3.01662,-0.412282 3.61477,-0.489967 4.21694,-0.547692 0.35682,-0.03421 1.05018,-0.14751 1.5408,-0.25179 0.49063,-0.104279 1.03052,-0.185367 1.19976,-0.180196 0.16924,0.0052 0.716627,-0.103628 1.216417,-0.241778 0.49979,-0.138149 1.09118,-0.287681 1.31419,-0.332295 0.22301,-0.04461 0.87988,-0.213046 1.45971,-0.374296 0.57982,-0.16125 1.51339,-0.333975 2.07459,-0.383832 0.5612,-0.04986 1.0846,-0.130351 1.16311,-0.178871 0.19207,-0.11871 0.89292,-0.212996 2.95361,-0.397352 0.9521,-0.08518 2.01039,-0.225144 2.35175,-0.311032 0.6573,-0.165377 2.5413,-0.395608 5.49742,-0.671804 1.88068,-0.175715 4.86972,-0.11926 8.82827,0.16674 2.96469,0.214195 3.76568,0.339399 5.67665,0.887323 0.84744,0.242985 1.72326,0.476082 1.94627,0.517995 0.34962,0.06571 1.07766,0.365552 2.14682,0.884175 0.15489,0.07514 0.37844,0.136612 0.49677,0.136612 0.11833,0 0.41983,0.213653 0.67001,0.474785 0.25018,0.261132 0.6835,0.561426 0.96294,0.667321 1.32938,0.503786 1.95557,0.946598 2.85733,2.020595 0.52429,0.624431 1.25471,1.463763 1.62314,1.865182 0.36843,0.40142 0.80643,0.985303 0.97333,1.297523 0.1669,0.31221 0.49086,0.76518 0.71992,1.0066 0.22905,0.24142 0.41646,0.5473 0.41646,0.67974 0,0.13243 0.0588,0.27712 0.13065,0.32153 0.0719,0.0444 0.34241,0.50488 0.60123,1.02326 0.25883,0.51838 0.51692,0.97901 0.57354,1.02361 0.0566,0.0446 0.23169,0.44602 0.38905,0.89204 0.15737,0.44603 0.34753,0.95692 0.42259,1.13533 0.96159,2.28558 1.85773,4.92204 2.01222,5.91993 0.0483,0.31221 0.27641,1.44349 0.50683,2.51394 0.23043,1.07045 0.48265,2.55023 0.56049,3.28839 0.0778,0.73816 0.181,1.406 0.22926,1.48408 0.0483,0.0781 0.12567,1.48123 0.17203,3.1181 0.0464,1.63688 0.1578,3.38784 0.24764,3.89102 0.0898,0.50319 0.1565,1.12357 0.14815,1.37862 -0.0212,0.64655 0.14008,2.04146 0.33825,2.92572 0.0917,0.40906 0.13027,0.78016 0.0858,0.82465 -0.0445,0.0445 -0.0178,0.19903 0.0593,0.34341 0.0771,0.14438 0.18319,0.53335 0.23569,0.86438 0.15355,0.96823 1.4067,4.66929 1.58098,4.66929 0.0876,0 0.11418,0.073 0.059,0.16219 -0.0551,0.0892 -0.0229,0.16219 0.0715,0.16219 0.0945,0 0.17476,0.0912 0.17842,0.20274 0.0127,0.38761 1.25198,1.57621 1.9597,1.87957 0.39164,0.16788 1.4205,0.38878 2.28636,0.4909 1.46449,0.17272 1.65105,0.16092 2.67498,-0.16915 1.00472,-0.32388 3.12807,-1.61627 3.12807,-1.90392 0,-0.0661 0.21373,-0.44285 0.47495,-0.83726 0.57129,-0.8626 1.17574,-2.95584 1.2296,-4.25819 0.0453,-1.09406 0.29995,-1.66883 0.79453,-1.79296 0.89834,-0.22547 1.5301,0.44343 1.65475,1.75204 0.0347,0.36442 0.13686,1.06329 0.22699,1.55304 0.14255,0.77451 0.12471,0.94346 -0.13697,1.29752 -0.16547,0.22388 -0.50088,1.02503 -0.74535,1.78033 -0.56282,1.73889 -1.04648,2.5618 -1.96975,3.35144 -1.00415,0.85881 -2.87727,1.92825 -4.19286,2.39389 -0.32227,0.11406 -3.89002,0.14607 -4.66635,0.0419 -0.68628,-0.0921 -1.41101,-0.43696 -2.7253,-1.29673 -1.60672,-1.05106 -1.71414,-1.17494 -3.1627,-3.64737 -0.0892,-0.15225 -0.32263,-0.50023 -0.51873,-0.77328 -0.57901,-0.80624 -0.96151,-1.9909 -1.17291,-3.63265 -0.10912,-0.84745 -0.25939,-1.79626 -0.33392,-2.10847 -0.0745,-0.31222 -0.18085,-0.96909 -0.23624,-1.45971 -0.0554,-0.49062 -0.13484,-1.111 -0.17656,-1.37861 -0.18429,-1.18228 -0.53357,-6.05718 -0.65076,-9.08263 -0.0484,-1.24886 -0.11452,-2.5261 -0.147,-2.83832 -0.0325,-0.31221 -0.11008,-1.07856 -0.17247,-1.70299 -0.0624,-0.62443 -0.2479,-1.56787 -0.41224,-2.09652 -0.16434,-0.52866 -0.26477,-1.01627 -0.22317,-1.08358 0.0416,-0.0673 0.001,-0.16822 -0.0892,-0.22425 -0.0907,-0.056 -0.16483,-0.26606 -0.16483,-0.46673 0,-0.52192 -0.87026,-2.8565 -1.70085,-4.56279 -0.39082,-0.80284 -1.15207,-2.0071 -1.69169,-2.67613 -0.53961,-0.66903 -0.98234,-1.26968 -0.98385,-1.33477 -0.004,-0.15624 -1.22081,-0.7737 -1.52519,-0.7737 -0.57391,0 -0.33687,1.82868 0.45792,3.5326 0.55483,1.18949 0.86401,2.30766 1.2431,4.4958 0.19334,1.11599 0.25253,6.53002 0.0807,7.37963 -0.0632,0.31222 -0.18999,0.85961 -0.28186,1.21643 -0.19995,0.77656 -0.5832,2.79654 -0.72315,3.81145 -0.0553,0.40142 -0.28312,1.24075 -0.50616,1.86518 -0.22305,0.62443 -0.44382,1.31779 -0.49061,1.54081 -0.0468,0.22301 -0.13906,0.47846 -0.20503,0.56766 -0.11457,0.15492 -1.44326,3.39256 -1.53091,3.73037 -0.12138,0.46788 -0.6813,1.5616 -1.19923,2.34253 -0.37366,0.5634 -0.61665,1.15025 -0.67159,1.6219 -0.0827,0.70974 -0.10596,0.73757 -0.58696,0.70133 -0.48231,-0.0363 -0.509,-0.004 -0.72005,0.87587 -0.2577,1.07424 -0.68267,1.55302 -1.835,2.06738 -0.81831,0.36527 -1.4353,0.89176 -1.49846,1.27866 -0.0175,0.10722 -0.0837,0.52339 -0.1471,0.92481 -0.0634,0.40142 -0.1385,0.83933 -0.16687,0.97314 -0.0284,0.1338 -0.0572,0.29802 -0.064,0.36492 -0.007,0.0669 -0.18707,0.12165 -0.40053,0.12165 -0.43706,0 -0.62861,-0.33753 -0.4946,-0.87148 0.0601,-0.23929 -0.0202,-0.45896 -0.24038,-0.65826 -0.46765,-0.42322 -0.70361,-0.17042 -1.24694,1.33589 -0.49461,1.37123 -0.63461,1.54396 -1.06484,1.31371 -0.24734,-0.13237 -0.27491,-0.29603 -0.18873,-1.12053 0.10488,-1.00342 -0.01,-1.30897 -0.61261,-1.63155 -0.41028,-0.21958 -1.06654,0.52988 -1.20589,1.37714 -0.17311,1.05259 -0.50335,1.71478 -0.85516,1.71478 -0.51741,0 -0.6726,-0.3715 -0.74221,-1.77671 -0.0737,-1.48688 -0.21019,-1.76383 -0.71436,-1.44898 -0.3004,0.18761 -0.47866,0.69286 -0.61197,1.73451 -0.0568,0.44353 -0.83376,1.81556 -1.02818,1.81556 -0.4774,0 -0.65622,-1.31799 -0.4126,-3.04106 0.19246,-1.3613 -0.28831,-1.08213 -1.43197,0.83149 -0.41991,0.70263 -0.76349,1.36399 -0.76349,1.46968 0,0.10569 -0.15498,0.35852 -0.34441,0.56184 -0.30628,0.32876 -0.37137,0.34273 -0.58792,0.12618 -0.18211,-0.18211 -0.24862,-0.6663 -0.26379,-1.92045 l -0.0203,-1.67695 0.83814,-1.21642 c 0.46098,-0.66903 1.03628,-1.36239 1.27845,-1.5408 0.24217,-0.17841 1.10576,-0.81638 1.91908,-1.41772 0.85972,-0.63563 1.95407,-1.27605 2.61411,-1.5298 1.0583,-0.40685 2.16416,-0.96606 2.35175,-1.18922 0.0446,-0.0531 0.48252,-0.33872 0.97314,-0.6348 1.63615,-0.98737 1.9584,-1.49178 3.01336,-4.71657 0.49754,-1.52085 0.66963,-3.38033 0.37956,-4.1011 -0.27786,-0.6904 -1.51456,-1.97176 -1.79496,-1.85976 -0.12064,0.0482 -0.46497,0.56309 -0.76518,1.14423 -0.30022,0.58114 -0.93884,1.57245 -1.41916,2.20289 -0.48033,0.63045 -0.87379,1.20276 -0.87435,1.2718 -4.8e-4,0.069 -0.96762,1.07598 -2.14901,2.23765 -1.99189,1.95862 -3.46125,3.15635 -5.06741,4.13062 -0.35682,0.21643 -0.72175,0.4875 -0.81095,0.60237 -0.0892,0.11487 -0.70044,0.4661 -1.3583,0.78052 -1.70314,0.814 -2.07698,1.1243 -2.54408,2.11166 -0.36261,0.7665 -0.48698,0.88857 -1.00417,0.98559 -0.49473,0.0928 -0.62776,0.0543 -0.82162,-0.23764 -0.32495,-0.4894 -0.81181,-0.44289 -1.02192,0.0976 -0.13728,0.35316 -0.10395,0.66554 0.16006,1.50026 0.53757,1.69961 0.57538,2.24991 0.21734,3.1627 -0.21047,0.5366 -0.42466,0.82718 -0.6331,0.85892 -0.39497,0.0602 -0.72289,-0.59852 -0.60885,-1.22297 0.0985,-0.5393 -0.12831,-0.93437 -0.46274,-0.80604 -0.1523,0.0584 -0.24044,0.29577 -0.23465,0.63184 0.0118,0.6824 -0.6837,2.13897 -1.05545,2.21056 -0.3662,0.0705 -0.62976,-0.59181 -0.68811,-1.72924 -0.0281,-0.54853 -0.14445,-0.96628 -0.31609,-1.13533 -0.25244,-0.2486 -0.28773,-0.24566 -0.5008,0.0417 -0.12608,0.17004 -0.34054,0.71743 -0.47659,1.21642 -0.43098,1.58074 -0.49094,1.7138 -0.79908,1.77314 -0.41262,0.0795 -0.57833,-0.24252 -0.58126,-1.12944 -0.004,-1.18011 -0.16589,-1.76381 -0.48947,-1.76381 -0.39078,0 -0.64655,0.35011 -0.72792,0.9964 -0.16896,1.34206 -0.29396,1.78987 -0.52433,1.87827 -0.14632,0.0561 -0.32002,-0.0312 -0.42562,-0.21403 -0.22989,-0.39798 -0.22399,-0.35768 -0.24772,-1.69259 -0.0226,-1.27383 -0.26285,-1.56242 -0.85588,-1.02827 -0.44762,0.40319 -0.6368,0.93417 -0.70535,1.97976 -0.0641,0.97787 -0.4644,1.48509 -0.86328,1.09388 -0.46344,-0.45455 -0.66417,-2.58164 -0.36516,-3.86955 0.39632,-1.70702 3.80213,-5.43594 6.74957,-7.38991 0.96319,-0.63853 1.89203,-1.16097 2.06409,-1.16097 0.17207,0 0.91055,-0.29618 1.64108,-0.65817 1.59682,-0.79125 2.96582,-2.03448 4.05113,-3.67893 1.27849,-1.93716 1.74427,-3.44289 1.93282,-6.24833 0.0822,-1.22375 -0.0519,-1.33019 -1.46348,-1.1614 -0.6027,0.0721 -1.27828,0.14095 -1.50129,0.1531 -1.87308,0.10202 -6.87511,1.76029 -8.18572,2.71372 -1.55645,1.13228 -3.27151,3.08944 -4.15019,4.73606 -0.62326,1.16796 -2.188837,3.43468 -2.821007,4.0844 -1.10741,1.13814 -3.61246,3.26962 -4.14366,3.52575 -0.31222,0.15053 -0.89346,0.56349 -1.29164,0.91769 -0.39819,0.3542 -0.79961,0.6463 -0.89205,0.64912 -0.28514,0.009 -1.05468,0.77041 -1.22143,1.20902 -0.21858,0.57489 -0.5592,0.65998 -1.3017,0.32516 -0.58201,-0.26245 -0.66702,-0.26496 -1.02518,-0.0303 -0.2148,0.14074 -0.38969,0.38793 -0.38865,0.54931 0.005,0.78795 -0.0818,1.02509 -0.56968,1.55533 -0.33681,0.36601 -0.84456,0.67617 -1.40636,0.85907 -0.98742,0.32147 -1.47251,0.7202 -1.47251,1.21037 0,0.35874 -0.55309,1.53716 -0.79025,1.68374 -0.27847,0.1721 -0.58027,-0.43642 -0.62694,-1.2641 -0.0951,-1.68557 -0.36027,-1.65752 -0.95493,0.10101 -0.24886,0.73594 -0.43804,1.39063 -0.42041,1.45487 0.0176,0.0642 -0.11783,0.19703 -0.30106,0.29509 -0.439556,0.23524 -0.798966,-0.0554 -0.798966,-0.64614 0,-0.68721 -0.48859,-1.95531 -0.75337,-1.95531 -0.28151,0 -0.59435,0.70919 -0.87643,1.98682 -0.12325,0.55823 -0.29153,0.93259 -0.41921,0.93259 -0.259,0 -0.58628,-0.62809 -0.86623,-1.66244 -0.11469,-0.42372 -0.30165,-0.77041 -0.41548,-0.77041 -0.24494,0 -0.72402,1.3159 -0.72402,1.98869 0,0.27711 -0.0752,0.44613 -0.18257,0.41034 -0.20601,-0.0687 -0.78452,-1.79977 -0.78818,-2.35848 -10e-4,-0.20517 -0.10273,-0.36492 -0.23161,-0.36492 -0.23506,0 -0.90611,1.79681 -0.90611,2.42621 0,0.3834 -0.35842,0.43756 -0.64116,0.0969 z M 87.241953,92.39215 c 0.39089,-0.0994 0.6893,-0.27166 0.6893,-0.39787 0,-0.18199 -0.42425,-0.208 -2.32749,-0.14269 -2.52792,0.0867 -3.3561,-0.0657 -4.184776,-0.77048 -0.2347,-0.1996 -0.61435,-0.51217 -0.84367,-0.6946 -0.74691,-0.59417 -2.12275,-1.99027 -2.53763,-2.575 -0.22301,-0.3143 -0.50168,-0.57347 -0.61926,-0.57593 -0.14056,-0.003 -0.085,0.16689 0.16219,0.49582 0.20679,0.27515 0.70441,0.9568 1.10583,1.51477 1.24055,1.72435 3.08715,3.04014 4.703496,3.35148 0.72849,0.14031 2.96049,0.0212 3.85201,-0.2055 z m 41.398937,-2.7977 c 0,-0.51698 -1.20633,-1.25746 -2.66937,-1.63854 -3.21862,-0.83834 -8.43299,-0.89557 -7.62106,-0.0836 0.085,0.085 1.21264,0.1858 2.50583,0.22394 1.78114,0.0525 2.64619,0.15536 3.56767,0.42404 0.66903,0.19508 1.48243,0.41153 1.80756,0.48101 0.32513,0.0695 0.83603,0.27746 1.13533,0.46218 0.64394,0.3974 1.27404,0.46219 1.27404,0.13101 z M 52.870667,84.91263 c 0.17158,-0.20675 -0.0892,-2.21304 -0.37943,-2.91899 -0.2219,-0.53975 -0.48688,-0.19292 -0.43185,0.56525 0.0292,0.40284 -0.0304,1.04266 -0.13248,1.42182 -0.10209,0.37915 -0.14655,0.7912 -0.0988,0.91565 0.10929,0.2848 0.81061,0.29574 1.04255,0.0163 z m 1.78738,-0.367 c 0.0312,-0.0276 0.0129,-0.12115 -0.0407,-0.20791 -0.14194,-0.22967 -0.74593,-0.0296 -0.74593,0.24711 0,0.16912 0.10263,0.20375 0.36493,0.12313 0.20071,-0.0617 0.39048,-0.13475 0.42171,-0.16233 z m 1.87509,-0.59264 c 0.11386,-0.32572 0.073,-0.69247 -0.15746,-1.4138 -0.30164,-0.94403 -0.65222,-1.60122 -0.77853,-1.45945 -0.11176,0.12544 -0.23753,3.2064 -0.13508,3.30885 0.25611,0.25611 0.92424,-0.0156 1.07107,-0.4356 z m 1.59794,-0.49279 c 0.2839,-0.20071 0.61298,-0.45454 0.7313,-0.56408 0.11831,-0.10954 0.30377,-0.25551 0.41212,-0.32438 0.32149,-0.20434 1.36765,-1.87315 1.47653,-2.35533 0.12855,-0.56927 -0.18164,-0.5939 -0.3955,-0.0314 -0.23075,0.6069 -1.76625,2.17007 -2.38605,2.42904 -0.56819,0.2374 -0.78601,0.5702 -0.63343,0.96781 0.1225,0.31924 0.18492,0.30969 0.79503,-0.12165 z m -7.55769,-6.52832 c 0.29788,-1.14916 0.27881,-2.59038 -0.0385,-2.90765 -0.30819,-0.30818 -0.22858,-0.30739 -0.94175,-0.009 -0.63628,0.26586 -0.70972,0.50449 -0.36372,1.18176 0.21656,0.42388 0.28957,0.71761 0.50442,2.02943 0.14623,0.89284 0.57034,0.74424 0.8395,-0.29414 z m 3.85666,-1.56189 c 0.37954,-1.25791 0.4625,-2.41764 0.19228,-2.68786 -0.14549,-0.14549 -1.40144,0.13902 -1.63214,0.36973 -0.19326,0.19325 -0.19307,0.34988 10e-4,1.07998 0.12503,0.46967 0.22819,1.33443 0.22925,1.9217 0.001,0.58726 0.0526,1.11843 0.11455,1.18038 0.24092,0.24092 0.6908,-0.52504 1.09477,-1.86393 z m 9.54657,-7.263339 c 0.37423,-0.170747 0.85218,-0.493681 1.06213,-0.717631 0.36918,-0.39381 0.37235,-0.419571 0.0965,-0.784332 -0.40015,-0.529136 -1.43609,-1.350287 -1.70348,-1.350287 -0.16483,0 -0.21134,0.199623 -0.17691,0.759434 0.0615,1.000795 -0.16783,1.381812 -0.96032,1.595208 -1.49777,0.403308 -2.12781,-0.538507 -1.1246,-1.681104 0.26762,-0.304793 0.48657,-0.635767 0.48657,-0.735498 0,-0.322822 -0.66251,-0.192474 -1.28087,0.252014 -0.67575,0.485737 -1.02143,1.076541 -0.86844,1.484276 0.16272,0.433681 1.01327,1.158858 1.47894,1.260934 0.2349,0.05149 0.50007,0.117965 0.58928,0.147725 0.5005,0.16696 1.80412,0.0417 2.4012,-0.230739 z m 70.691513,38.153859 c -0.23099,-0.24727 -0.11758,-0.53976 0.20929,-0.53976 0.29739,0 0.41382,0.36868 0.18417,0.58321 -0.13631,0.12733 -0.24516,0.11531 -0.39346,-0.0434 z m 20.03125,-46.385404 c -0.0595,-0.05947 -0.10813,-0.421089 -0.10813,-0.803599 0,-0.677562 -0.0157,-0.698076 -0.60821,-0.796554 -0.90085,-0.149716 -1.01368,-0.203167 -1.01368,-0.480207 0,-0.293212 0.75401,-0.625294 1.10978,-0.48877 0.35587,0.13656 0.50931,-0.218285 0.49044,-1.134203 -0.03,-1.455303 -0.15571,-1.755058 -0.81428,-1.941286 -0.76948,-0.217592 -1.17702,-0.601029 -1.39552,-1.312983 -0.2045,-0.666327 -0.08,-0.774342 0.79555,-0.690262 0.3896,0.03741 0.55821,0.142851 0.60186,0.376355 0.0777,0.415797 0.36268,0.594778 0.61438,0.38589 0.26366,-0.21882 0.2361,-3.950719 -0.0319,-4.317211 -0.12109,-0.165594 -0.44761,-0.264694 -0.89897,-0.272833 -0.51897,-0.0094 -0.72262,-0.08353 -0.76037,-0.276926 -0.0712,-0.364951 0.42385,-0.820631 0.77166,-0.71024 0.15744,0.04997 2.1751,0.128419 4.48367,0.174326 2.30858,0.04591 4.52584,0.09873 4.92726,0.117385 l 0.72986,0.03392 0.0216,2.513941 c 0.0119,1.382668 0.0301,2.605174 0.0405,2.716679 0.0121,0.129326 0.28313,0.202738 0.74846,0.202738 0.61261,0 0.82698,-0.09202 1.33807,-0.574355 0.42299,-0.399198 0.73182,-0.559949 1.01267,-0.527117 0.57561,0.06729 0.60573,0.540898 0.0513,0.805839 -0.27193,0.129936 -0.47736,0.37266 -0.51001,0.60259 -0.0477,0.335731 -0.001,0.374772 0.3639,0.305001 0.25522,-0.04879 0.49602,0.01333 0.61706,0.159173 0.16177,0.194916 0.12862,0.295784 -0.17912,0.544977 -0.47949,0.388261 -0.78781,0.384156 -1.39594,-0.01859 -0.54991,-0.364191 -1.77162,-0.439353 -1.97725,-0.121642 -0.14413,0.222698 -0.23201,2.47595 -0.1132,2.902756 0.0465,0.167217 0.18677,0.23778 0.3748,0.188609 0.53913,-0.140987 0.53278,0.265349 -0.0164,1.047611 -0.29624,0.421995 -0.61943,0.913236 -0.7182,1.091644 -0.3002,0.542292 -0.66269,0.47829 -0.97101,-0.171444 -0.15556,-0.327815 -0.53567,-0.841574 -0.84469,-1.141688 -0.46509,-0.451692 -0.51617,-0.563188 -0.29661,-0.647442 0.14588,-0.05598 0.44462,-0.05676 0.66386,-0.0017 0.29036,0.07288 0.44226,0.01851 0.55929,-0.200155 0.21273,-0.39749 0.28242,-2.747602 0.0867,-2.924259 -0.0843,-0.07611 -0.6616,-0.219164 -1.28285,-0.317892 -1.14226,-0.181528 -1.7829,-0.514117 -2.1017,-1.091116 -0.0961,-0.173932 -0.22472,-0.3541 -0.28581,-0.400373 -0.0611,-0.04628 -0.13592,-0.265231 -0.16629,-0.48657 -0.0304,-0.22134 -0.1115,-0.492166 -0.18028,-0.601837 -0.22134,-0.352961 0.25378,-1.505097 0.89178,-2.162514 0.34105,-0.351433 0.6201,-0.711869 0.6201,-0.800971 0,-0.0891 -0.31019,-0.171462 -0.68931,-0.183021 -1.0577,-0.03225 -3.2715,0.04426 -3.3896,0.117141 -0.1404,0.08664 -0.0855,4.153102 0.0591,4.377778 0.0623,0.09673 0.42409,0.188056 0.80407,0.202945 0.96561,0.03784 1.19318,0.135696 1.40704,0.605069 0.27958,0.613619 0.22752,0.996567 -0.17367,1.277573 -0.53392,0.373974 -0.73057,0.31374 -1.02901,-0.315183 -0.27096,-0.571007 -0.74647,-0.75465 -0.97916,-0.378155 -0.13578,0.219704 -0.20642,1.990274 -0.10082,2.52717 0.0567,0.288492 0.18173,0.364927 0.59672,0.364927 0.56109,0 1.06179,0.408462 1.06179,0.866184 0,0.228769 -0.10775,0.255749 -0.66529,0.166593 -0.79601,-0.127286 -0.95054,0.04037 -0.95412,1.035143 -0.002,0.672591 -0.0156,0.689306 -0.54312,0.689306 -0.29735,0 -0.58929,-0.04866 -0.64876,-0.108127 z m 7.77946,-6.883774 c 0.26032,-0.21605 0.32408,-3.792522 0.0704,-3.949302 -0.0833,-0.0515 -0.4665,0.03073 -0.8515,0.182718 -1.54383,0.609483 -2.17692,1.428105 -2.00273,2.589657 0.0852,0.568176 0.21253,0.789625 0.58385,1.015441 0.54905,0.333893 1.87495,0.43122 2.19997,0.161486 z M 37.307717,59.391065 c -0.0979,-0.118013 -0.13271,-0.395346 -0.0773,-0.616295 0.0976,-0.388854 0.15145,-0.403216 1.68052,-0.448129 l 1.5797,-0.0464 3e-5,-1.621898 c 3e-5,-1.532627 -0.0178,-1.618785 -0.32434,-1.565358 -0.17841,0.0311 -0.81586,0.05515 -1.41655,0.05346 -0.87327,-0.0025 -1.19833,-0.07761 -1.62189,-0.374964 -0.73517,-0.516094 -0.88947,-0.741437 -1.20678,-1.762404 -0.36717,-1.181382 -0.47296,-1.297518 -1.18197,-1.297518 -0.48977,0 -0.63843,0.07806 -0.79246,0.416115 -0.1476,0.323958 -0.28807,0.404779 -0.63424,0.364927 -0.40368,-0.04647 -0.45322,-0.125865 -0.53764,-0.861552 -0.11666,-1.016691 0.0184,-1.702268 0.3803,-1.930555 0.32544,-0.205282 0.83565,0.03493 0.86303,0.406321 0.009,0.124372 0.0278,0.317362 0.0414,0.428868 0.0151,0.124044 0.27495,0.202737 0.66941,0.202737 0.60186,0 0.66525,-0.04581 0.95381,-0.689307 0.17001,-0.379118 0.36348,-0.866954 0.42993,-1.08408 0.0665,-0.217125 0.53131,-0.811635 1.03301,-1.321134 0.79412,-0.806448 1.03347,-0.951153 1.84912,-1.11788 0.83539,-0.170765 0.99358,-0.15859 1.45971,0.112352 0.39512,0.229667 0.56633,0.480234 0.70111,1.026085 0.16589,0.671815 0.2122,0.718898 0.66369,0.674721 0.68153,-0.06669 0.98434,0.321614 0.64942,0.832768 -0.21442,0.327257 -0.42944,0.396602 -1.51403,0.488283 -1.11602,0.09434 -1.30064,0.07033 -1.57589,-0.204918 -0.39354,-0.393537 -0.24375,-0.825357 0.2863,-0.825357 0.45833,0 0.62552,-0.185294 0.48875,-0.541695 -0.11798,-0.30747 -0.99659,-0.635735 -1.12883,-0.421757 -0.0518,0.08388 -0.22836,0.152503 -0.39226,0.152503 -0.26376,0 -1.27143,0.9599 -1.32545,1.262615 -0.33315,1.867004 -0.33983,2.187666 -0.0666,3.197049 0.3382,1.249424 0.99045,2.027927 1.69903,2.027927 0.5748,0 0.89541,-0.296454 1.14786,-1.061365 0.26857,-0.813782 0.1063,-1.309204 -0.46634,-1.423731 -0.46228,-0.09246 -0.75846,-0.486539 -0.5812,-0.773336 0.10085,-0.163177 2.00758,-0.203731 2.40519,-0.05116 0.21716,0.08333 0.23897,0.42957 0.16093,2.554489 -0.0497,1.351951 -0.10884,2.713541 -0.13151,3.025756 -0.0488,0.672147 0.19447,1.656535 0.44878,1.815947 0.25247,0.158258 2.09561,0.10525 2.32311,-0.06681 0.11587,-0.08764 0.19407,-0.713097 0.20441,-1.634844 0.009,-0.821097 0.0464,-2.858712 0.0825,-4.528032 0.0362,-1.669319 0.0281,-3.179176 -0.0179,-3.355237 -0.046,-0.17606 -0.28847,-0.391488 -0.53873,-0.478729 -0.53648,-0.187019 -0.76696,-0.739207 -0.46195,-1.106726 0.17912,-0.215828 0.50737,-0.243158 2.08132,-0.1733 2.43709,0.108169 3.27627,0.331673 3.89617,1.0377 0.69189,0.788015 0.67788,1.700654 -0.0407,2.650692 -0.28992,0.383307 -0.62492,0.828657 -0.74446,0.989669 -0.13908,0.187334 -0.17801,0.471807 -0.10812,0.790019 0.10084,0.459099 0.56329,0.903587 1.86132,1.788995 0.94519,0.644734 1.6796,3.007579 1.17902,3.793334 -0.0632,0.09917 -0.116,0.253301 -0.11736,0.342506 -0.001,0.0892 -0.35741,0.399392 -0.79121,0.689306 -0.66789,0.446356 -0.93569,0.527117 -1.74787,0.527117 -0.84958,0 -1.02347,-0.05855 -1.52247,-0.51263 -0.45128,-0.410653 -0.56334,-0.633344 -0.56334,-1.119461 0,-0.528439 -0.0629,-0.628745 -0.48657,-0.776453 -0.53941,-0.188038 -0.56015,-0.23253 -0.31868,-0.683724 0.17767,-0.331972 1.03016,-0.44368 1.20665,-0.158117 0.0529,0.08558 0.45493,0.140318 0.89342,0.121642 0.43848,-0.01868 0.88122,0.04998 0.98386,0.152561 0.18665,0.186562 0.0844,0.325391 -0.74963,1.01759 -0.26025,0.215994 -0.25458,0.250173 0.0874,0.527116 0.81663,0.661268 1.7895,0.129908 1.7895,-0.977386 0,-0.857961 -0.52853,-1.57878 -1.73663,-2.368448 -1.13112,-0.739355 -1.43191,-1.247687 -1.41442,-2.390346 0.01,-0.620143 0.12217,-0.903023 0.60821,-1.526873 0.67693,-0.86887 0.77596,-1.590323 0.29912,-2.179188 -0.22688,-0.280195 -0.5149,-0.38535 -1.21428,-0.443349 -0.84655,-0.0702 -0.92763,-0.0469 -1.05738,0.303849 -0.0773,0.208935 -0.14917,2.680618 -0.15974,5.492629 -0.0174,4.641456 -0.045,5.131617 -0.29912,5.317429 -0.15395,0.112575 -0.41207,0.162737 -0.57359,0.111473 -0.31446,-0.09981 -2.68593,-0.107092 -5.52385,-0.01697 -1.30498,0.04144 -1.79073,0.0013 -1.92384,-0.159131 z m -7.44039,35.462975 c 0,-0.0892 -0.073,-0.16219 -0.16219,-0.16219 -0.0892,0 -0.16219,0.073 -0.16219,0.16219 0,0.0892 0.073,0.16219 0.16219,0.16219 0.0892,0 0.16219,-0.073 0.16219,-0.16219 z m 0.48656,-52.306209 c 0,-0.169914 -0.1712,-0.243285 -0.56766,-0.243285 -0.39646,0 -0.56766,0.07337 -0.56766,0.243285 0,0.169913 0.1712,0.243284 0.56766,0.243284 0.39646,0 0.56766,-0.07337 0.56766,-0.243284 z"
       id="path21"
       inkscape:connector-curvature="0" />
  </g>
</svg>
